<svg width="200" height="53" viewBox="0 0 200 53" fill="none" xmlns="http://www.w3.org/2000/svg">
<g clip-path="url(#clip0_7_507)">
<path d="M87.5103 19.0857C91.1786 14.6299 98.8047 17.0076 98.8047 22.9292V34.2846C98.8047 34.4879 98.7056 34.5929 98.5075 34.5996H96.4117C96.0357 34.5996 96.0611 34.5996 96.0611 34.2491V22.8937C96.0764 21.3085 94.9866 19.9265 93.4395 19.5734C91.5469 19.0272 89.5731 20.1196 89.0269 22.0096C88.9278 22.3526 88.8821 22.7107 88.8872 23.0664V34.0027C88.8872 34.3871 88.689 34.5793 88.2927 34.5793H86.423C86.2299 34.5793 86.169 34.5183 86.1969 34.3431V22.9876C86.1969 21.0849 84.6752 19.5302 82.7725 19.4921H79.277C79.0153 19.4921 79.0052 19.4921 79.0052 19.7538V34.089C79.0052 34.426 78.8307 34.5946 78.4818 34.5946H76.5334C76.364 34.5946 76.2768 34.5039 76.2717 34.3227V17.2845C76.2717 16.9882 76.4258 16.84 76.7341 16.84H82.7268C84.5736 16.84 86.3265 17.6605 87.5052 19.0857H87.5103Z" fill="white"/>
<path d="M160.373 34.6174H158.897C158.137 34.5539 157.573 33.8884 157.634 33.1288C157.634 33.1161 157.634 33.1034 157.639 33.0881V17.216C157.639 16.7358 157.568 16.7968 158.059 16.7968H169.782C173.169 16.7333 175.976 19.4032 176.08 22.7895V34.3202C176.08 34.653 176.08 34.6251 175.783 34.6251H174.805C174.032 34.6555 173.385 34.0535 173.354 33.2812C173.354 33.2431 173.354 33.205 173.354 33.1644V23.2061C173.38 22.6295 173.27 22.0554 173.032 21.5295C172.503 20.2974 171.281 19.5048 169.94 19.5302H160.619C160.445 19.5302 160.354 19.6208 160.347 19.8021C160.36 24.7405 160.368 29.679 160.373 34.6174Z" fill="white"/>
<path d="M153.804 26.2927V34.3812C153.804 34.5819 153.732 34.6352 153.549 34.625H152.422C151.69 34.625 151.088 34.0458 151.06 33.3142V18.4633C150.961 17.7062 151.494 17.0153 152.251 16.9162C152.909 16.8298 153.537 17.2261 153.743 17.8587C153.788 18.0543 153.809 18.2524 153.804 18.4531V26.2901V26.2927Z" fill="white"/>
<path d="M72.3875 26.2317V34.4269C72.3875 34.5666 72.3875 34.6276 72.2046 34.6276H70.9293C70.2409 34.5844 69.6973 34.0255 69.6719 33.3345C69.743 28.0938 69.5245 22.8505 69.7506 17.7062C70.0351 17.0102 70.8303 16.6748 71.5289 16.9619C72.009 17.1575 72.3367 17.6097 72.3723 18.1279V26.1986L72.39 26.2342L72.3875 26.2317Z" fill="white"/>
<path d="M71.0259 14.2539C70.1622 14.2488 69.4661 13.5452 69.4712 12.6814C69.4763 11.8177 70.18 11.1217 71.0437 11.1267C71.9074 11.1318 72.6035 11.8355 72.5984 12.6992V12.7068C72.5882 13.568 71.8871 14.259 71.0259 14.2539Z" fill="white"/>
<path d="M152.434 14.2539C151.586 14.259 150.892 13.5731 150.887 12.7246V12.717C150.877 11.8584 151.566 11.1547 152.424 11.1445C153.283 11.1344 153.987 11.8228 153.997 12.6814C154.007 13.5401 153.318 14.2438 152.46 14.2539C152.452 14.2539 152.442 14.2539 152.434 14.2539Z" fill="white"/>
<path d="M178.719 38.6262V41.0116C178.719 41.2656 178.676 41.3088 178.448 41.3088C178.219 41.3088 178.168 41.3088 178.168 41.0217V38.2527C178.168 38.0165 178.168 37.9809 178.448 37.9657C178.646 37.9631 178.844 38.0139 179.017 38.113C180.764 38.9869 182.433 39.7998 184.161 40.6203V38.235C184.161 38.0165 184.222 37.9631 184.423 37.9631C184.623 37.9631 184.72 38.0165 184.727 38.235V41.0395C184.727 41.2758 184.666 41.3113 184.423 41.3113C184.275 41.291 184.13 41.2402 184.003 41.164L179.139 38.7888C179.014 38.7049 178.869 38.649 178.719 38.6313V38.6262Z" fill="white"/>
<path d="M99.5389 40.6178V38.2248C99.5389 38.0139 99.5999 37.9631 99.8006 37.9631C100.001 37.9631 100.088 38.0165 100.088 38.235V41.0471C100.088 41.2732 100.088 41.3012 99.826 41.3012C99.666 41.2935 99.5085 41.2453 99.3713 41.1614L94.5065 38.7862C94.3896 38.7075 94.2601 38.6541 94.1229 38.6287C94.1026 38.7506 94.1026 38.8751 94.1229 38.9945V41.0573C94.1229 41.2681 94.0619 41.3113 93.8435 41.3113C93.625 41.3113 93.5564 41.3113 93.5564 41.0675V38.2553C93.5564 38.0724 93.6529 38.019 93.8104 38.0012C94.0213 37.9962 94.2296 38.052 94.4125 38.1587C96.1171 38.9539 97.8115 39.7998 99.5415 40.6229L99.5389 40.6178Z" fill="white"/>
<path d="M154.645 37.9276C155.567 37.8971 156.489 38.0368 157.36 38.3391C157.457 38.3391 157.614 38.3391 157.586 38.522C157.556 38.6592 157.431 38.7557 157.289 38.7481C157.129 38.7379 156.969 38.7075 156.817 38.6516C155.46 38.2832 154.032 38.2603 152.668 38.5906C152.302 38.6693 151.957 38.8192 151.647 39.0275C150.519 39.9014 152.145 40.6356 152.94 40.7753C154.291 41.0547 155.689 40.9938 157.01 40.6C157.228 40.5137 157.568 40.4425 157.629 40.7474C157.629 40.8871 157.515 40.8947 157.429 40.9226C156.974 41.0929 156.502 41.2148 156.021 41.2885C154.467 41.5704 152.864 41.3697 151.426 40.7118C150.806 40.379 150.359 39.6728 150.903 39.0606C151.766 38.1003 153.428 37.9174 154.642 37.925L154.645 37.9276Z" fill="white"/>
<path d="M86.9159 39.0199V38.1993C86.9159 37.9275 86.9946 37.9555 87.2029 37.9631C87.4112 37.9707 87.49 38.0164 87.5001 38.207V39.9547C87.4392 40.8286 86.3722 41.1436 85.6406 41.2656C84.2535 41.5577 82.8081 41.39 81.5252 40.7854C81.2026 40.5771 81.0095 40.2164 81.0197 39.8328V38.3035C81.0197 38.0495 81.0806 37.9885 81.3169 37.9885C81.5531 37.9885 81.5963 38.0418 81.604 38.2679V39.6931C81.4719 41.1512 84.9572 40.9506 85.8768 40.7245C86.4281 40.5924 87.02 40.3231 86.926 39.6499C86.9031 39.4416 86.9006 39.2307 86.9184 39.0199H86.9159Z" fill="white"/>
<path d="M108.773 37.9707H111.463C111.596 37.9707 111.796 37.9021 111.822 38.118C111.822 38.3314 111.651 38.5016 111.438 38.5042C111.428 38.5042 111.42 38.5042 111.41 38.5042H109.54C109.208 38.5042 109.043 38.6676 109.043 38.9944V40.9785C109.043 41.2579 108.982 41.3113 108.72 41.3011C108.458 41.2909 108.476 41.2477 108.466 41.0217V38.776C108.466 38.5143 108.466 38.5042 108.204 38.5042H106.108C105.854 38.5042 105.786 38.4254 105.707 38.1993C105.628 37.9732 105.707 37.9885 105.847 37.9808C106.825 37.9554 107.795 37.9808 108.773 37.9732V37.9707Z" fill="white"/>
<path d="M147.244 22.7794C147.102 19.3524 144.214 16.6876 140.789 16.8222H127.231C127.092 16.8222 126.838 16.7537 126.848 16.9696V28.4317C126.83 29.3208 127.021 30.1998 127.407 31C128.364 33.2533 130.595 34.6937 133.041 34.6429C136.859 34.7115 140.685 34.6429 144.493 34.6861C144.516 34.7572 144.516 34.8334 144.493 34.9045C144.422 35.6438 144.115 36.3424 143.619 36.8962C142.933 37.6583 141.945 38.08 140.919 38.0495H130.061C129.317 38.1536 128.794 38.8395 128.898 39.5864C128.966 40.0767 129.294 40.4908 129.757 40.6711C129.934 40.722 130.122 40.7423 130.308 40.7321H141.097C144.508 40.6991 147.247 37.9072 147.214 34.4981C147.214 34.465 147.214 34.432 147.214 34.399C147.239 30.5376 147.285 26.6585 147.249 22.7794H147.244ZM144.529 31.6122C144.529 31.9628 144.529 31.9272 144.206 31.9272H133.12C131.189 31.9552 129.602 30.4157 129.574 28.485C129.574 28.4673 129.574 28.4495 129.574 28.4317V19.9418C129.574 19.5226 129.52 19.5582 129.939 19.5582H140.998C142.928 19.5353 144.511 21.0799 144.536 23.008C144.536 23.0233 144.536 23.0385 144.536 23.0512C144.519 25.9244 144.529 28.7645 144.529 31.6122Z" fill="white"/>
<path d="M193.588 28.5537C195.897 28.7213 198.108 27.5934 199.327 25.6272C201.44 21.7658 198.278 16.7512 193.929 16.8045H179.88C179.558 16.8045 179.576 16.8045 179.576 17.1017V28.5969C179.563 30.8679 180.843 32.951 182.878 33.9595C183.856 34.4702 184.948 34.7166 186.048 34.6759H197.02C197.808 34.7928 198.539 34.2466 198.656 33.4591C198.666 33.3905 198.671 33.3219 198.671 33.2508C198.633 32.5471 198.075 31.9832 197.371 31.94H185.805C183.922 31.94 182.375 30.4488 182.309 28.5689L193.586 28.5511L193.588 28.5537ZM182.294 25.4697V19.9063C182.294 19.731 182.233 19.5049 182.494 19.5303H193.695C195.626 19.4998 197.213 21.0367 197.246 22.9674C197.249 23.1986 197.231 23.4272 197.19 23.6533C196.875 25.2334 195.173 25.8812 193.695 25.8279H182.426C182.243 25.8279 182.304 25.6018 182.294 25.4697Z" fill="white"/>
<path d="M122.969 22.0985C122.562 19.0907 120.009 16.8374 116.976 16.8044H107.165C106.502 16.7739 105.918 17.2287 105.786 17.879C105.636 18.6309 106.124 19.3626 106.876 19.5124C107.041 19.5455 107.211 19.548 107.376 19.5201H116.592C118.388 19.4083 119.976 20.6785 120.261 22.4542C120.301 22.7573 120.174 22.9089 119.877 22.9089H109.063C106.713 22.8479 104.259 23.7828 103.184 26.0285C101.254 29.933 104.452 34.7648 108.854 34.6682H122.71C123.06 34.6682 123.032 34.6682 123.032 34.3456C122.989 30.2658 123.136 26.1784 122.971 22.0985H122.969ZM120.347 26.0132V31.7798C120.347 31.9907 120.136 31.9196 120.007 31.9272H108.816C105.321 31.9958 103.766 26.7728 107.523 25.8125C107.897 25.7084 108.28 25.655 108.667 25.655H120.154C120.38 25.6195 120.294 25.8735 120.312 26.0209L120.347 26.0132Z" fill="white"/>
<path d="M74.9814 38.2959C73.9678 37.9351 72.8907 37.798 71.8186 37.8945H70.0709C69.799 37.8945 69.7559 37.9377 69.7559 38.1562V41.0395C69.7559 41.2503 69.8346 41.3011 70.0607 41.3011C70.2868 41.3011 70.3325 41.3011 70.3401 41.0471V40.2951C70.3401 40.163 70.3935 40.1122 70.5154 40.1199C71.9914 40.0665 73.5562 40.2951 74.9433 39.6829C75.7816 39.3603 75.774 38.6337 74.9788 38.2933L74.9814 38.2959ZM74.7375 39.3273C73.8509 39.6346 72.9084 39.7388 71.9761 39.6321H70.5967C70.4037 39.6321 70.3605 39.5711 70.3706 39.3959C70.3783 39.2206 70.3706 38.8192 70.3706 38.522C70.3706 38.3746 70.3706 38.3213 70.5637 38.3213C71.6865 38.2883 72.8094 38.3187 73.9271 38.4077C74.2117 38.4305 74.4885 38.5093 74.74 38.6439C75.0805 38.87 75.0906 39.124 74.74 39.3247L74.7375 39.3273Z" fill="white"/>
<path d="M198.872 40.9861L195.806 38.1816C195.562 37.8818 195.123 37.8386 194.823 38.0825C194.787 38.113 194.752 38.146 194.724 38.1816L191.693 40.9607C191.614 41.0395 191.5 41.0827 191.482 41.2402C191.711 41.3723 192 41.3367 192.191 41.1538C192.374 40.9887 192.575 40.8388 192.75 40.6635C192.882 40.5289 193.067 40.4603 193.255 40.4704H196.619C196.908 40.4272 197.203 40.4272 197.493 40.4704C198.087 40.6965 198.262 41.5094 199.065 41.2224C199.025 41.1284 198.958 41.0445 198.872 40.9861ZM193.542 39.9547C193.542 39.876 193.596 39.8506 193.639 39.8074C194.111 39.3705 194.599 38.9335 195.072 38.4966C195.204 38.3746 195.283 38.3391 195.43 38.4966C195.946 38.9869 196.469 39.4568 197.002 39.9471C195.852 40.0386 194.696 40.0564 193.542 40.0005V39.9573V39.9547Z" fill="white"/>
<path d="M171.251 41.037C170.212 40.0843 169.155 39.1495 168.131 38.1816C167.819 37.8742 167.318 37.8742 167.003 38.1816C166.025 39.1164 165.012 40.0259 164.008 40.943C163.929 41.0217 163.746 41.0827 163.807 41.2148C163.868 41.3469 164.051 41.2935 164.191 41.3012C164.3 41.2884 164.402 41.2402 164.478 41.1614C164.689 40.9785 164.897 40.8032 165.098 40.6102C165.207 40.5086 165.352 40.4552 165.499 40.4628H169.615C169.765 40.4552 169.909 40.5086 170.016 40.6102C170.191 40.7855 170.392 40.9328 170.575 41.1081C170.689 41.2199 170.842 41.2884 171.002 41.3012H171.149C171.22 41.3012 171.314 41.3012 171.342 41.2148C171.367 41.1284 171.289 41.0928 171.246 41.0395L171.251 41.037ZM165.817 39.9802C165.898 39.8481 166.005 39.7312 166.132 39.6398L167.407 38.4686C167.486 38.4001 167.554 38.3111 167.679 38.4686L169.356 40.0157L165.817 39.9802Z" fill="white"/>
<path d="M124.251 40.976L121.211 38.1968C120.969 37.8895 120.522 37.8387 120.217 38.0825C120.174 38.1156 120.136 38.1562 120.103 38.1968L117.062 40.976C116.991 41.0446 116.879 41.0979 116.862 41.2631C117.116 41.3748 117.41 41.3215 117.614 41.131C117.779 40.9658 117.972 40.8261 118.137 40.6585C118.274 40.5289 118.457 40.4628 118.642 40.4755H122.085C122.641 40.4019 123.197 40.6178 123.561 41.0446C123.695 41.2123 123.896 41.3113 124.112 41.3164C124.226 41.3164 124.366 41.3164 124.417 41.2478C124.47 41.1792 124.356 41.0471 124.251 40.976ZM118.853 39.9726C119.465 39.3959 120.05 38.8726 120.601 38.3315L122.349 39.9726H118.853Z" fill="white"/>
<path d="M28.1269 30.7027C28.0736 29.3487 29.1278 28.2055 30.4819 28.1522C30.5504 28.1496 30.619 28.1496 30.6876 28.1522C32.067 28.1674 33.1746 29.2979 33.1594 30.6773C33.1442 32.0567 32.0137 33.1643 30.6343 33.1491C29.3336 33.2329 28.2133 32.2447 28.1295 30.9466C28.1244 30.8653 28.1244 30.784 28.1269 30.7052V30.7027Z" fill="white"/>
<path d="M22.2663 30.5986C22.2257 29.2877 23.2545 28.1903 24.5679 28.1497C24.639 28.1497 24.7101 28.1497 24.7838 28.1522C26.1734 28.0963 27.3445 29.1734 27.4004 30.563C27.4563 31.9526 26.3791 33.1237 24.9896 33.1796C24.893 33.1847 24.799 33.1796 24.705 33.1745C23.3358 33.1516 22.2434 32.0212 22.2663 30.6519C22.2663 30.6341 22.2663 30.6163 22.2663 30.596V30.5986Z" fill="white"/>
<path d="M30.6597 22.2993C31.7952 22.251 32.8088 23.0004 33.0959 24.0978C33.5074 25.3223 32.8495 26.6509 31.625 27.0624C31.5361 27.0929 31.4421 27.1183 31.3507 27.1361C30.4514 27.3749 29.4937 27.1183 28.8357 26.4629C27.8958 25.4798 27.9288 23.92 28.9119 22.9801C29.3819 22.5304 30.0119 22.284 30.6622 22.2967L30.6597 22.2993Z" fill="white"/>
<path d="M22.3449 24.8853C22.256 23.5237 23.2874 22.345 24.649 22.2561C26.0107 22.1672 27.1894 23.1985 27.2783 24.5602C27.324 25.2512 27.0776 25.9294 26.5975 26.4299C25.0784 28.0379 22.2637 27.1717 22.3424 24.8828L22.3449 24.8853Z" fill="white"/>
<path d="M30.581 38.8624C29.2651 38.9055 28.1626 37.8716 28.1219 36.5557C28.0838 35.3999 28.8815 34.3837 30.0145 34.1449C30.5937 33.9823 31.2135 34.0281 31.7623 34.277C32.974 34.8206 33.5151 36.2407 32.9715 37.4525C32.5548 38.3822 31.5971 38.9462 30.5835 38.8649L30.581 38.8624Z" fill="white"/>
<path d="M36.5126 28.1522C37.3611 28.1319 38.1435 28.612 38.5119 29.3741C39.8125 31.8459 36.8606 34.4752 34.7369 32.3972C33.7716 31.4115 33.7893 29.8289 34.775 28.8635C35.2399 28.4088 35.8597 28.1548 36.5101 28.1522H36.5126Z" fill="white"/>
<path d="M27.2988 36.4516C27.3267 37.6685 26.4122 38.6999 25.203 38.8192C22.1114 39.1165 21.141 34.7826 24.2859 34.084C25.6298 33.7944 26.9559 34.648 27.2455 35.9918C27.2785 36.1417 27.2963 36.2967 27.3013 36.4516H27.2988Z" fill="white"/>
<path d="M34.0331 24.7278C33.9874 23.7345 34.6072 22.8301 35.5522 22.5177C36.5608 22.1823 37.6734 22.5354 38.3034 23.3915C39.1545 24.4077 39.0198 25.9243 38.0037 26.7753C37.7522 26.9861 37.4626 27.1411 37.1501 27.2351C35.8317 27.5933 34.4751 26.8159 34.1144 25.5C34.0458 25.2485 34.0179 24.9894 34.0306 24.7278H34.0331Z" fill="white"/>
<path d="M33.073 19.1365C33.1594 21.1358 30.8451 21.87 29.3336 21.0494C28.2311 20.4601 27.8145 19.0908 28.4039 17.9883C28.6909 17.4523 29.1787 17.0534 29.763 16.8832C31.2745 16.3853 33.162 17.4345 33.073 19.1365Z" fill="white"/>
<path d="M19.1392 33.1059C18.3872 33.1034 17.6886 32.7248 17.2695 32.1025C16.421 31.1143 16.5327 29.6231 17.5235 28.7746C18.5117 27.9261 20.0029 28.0379 20.8514 29.0286C21.7379 30.0727 21.6084 31.6401 20.5643 32.5267C20.1629 32.8671 19.6625 33.0703 19.1392 33.1084V33.1059Z" fill="white"/>
<path d="M19.0323 27.3495C16.8756 27.3495 16.0372 24.5449 17.5208 23.1732C18.3769 22.2485 19.8173 22.1926 20.742 23.0487C20.9859 23.2748 21.1764 23.5491 21.3034 23.8565C21.8216 25.1724 21.1738 26.6585 19.8579 27.1768C19.5937 27.2809 19.3143 27.3393 19.0323 27.352V27.3495Z" fill="white"/>
<path d="M24.9921 16.8654C26.2115 16.8019 27.2505 17.7368 27.3165 18.9561C27.3445 19.5049 27.1692 20.046 26.8186 20.4727C25.6043 22.0884 22.5381 21.6616 22.4517 19.4337C22.3425 18.1255 23.3129 16.9772 24.6212 16.868C24.7457 16.8578 24.8702 16.8578 24.9946 16.868L24.9921 16.8654Z" fill="white"/>
<path d="M38.7075 36.1899C38.6745 37.5947 37.5085 38.7048 36.1037 38.6693C35.8598 38.6642 35.6185 38.6236 35.3873 38.5473C34.6557 38.3543 34.1069 37.7471 33.9901 37.0003C33.7183 35.6285 34.6125 34.2948 35.9843 34.023C36.3983 33.9417 36.8277 33.9645 37.2316 34.089C38.1512 34.3608 38.7634 35.2296 38.7075 36.1848V36.1899Z" fill="white"/>
<path d="M21.5397 36.477C21.5879 37.6151 20.7064 38.5753 19.5684 38.6236C19.5252 38.6236 19.4794 38.6236 19.4337 38.6236C18.0949 38.5575 17.0077 37.5134 16.8908 36.1772C16.8299 34.9883 17.7444 33.9722 18.9333 33.9112C19.2127 33.896 19.4921 33.9366 19.7563 34.0281C20.8309 34.3532 21.56 35.3516 21.5371 36.4744L21.5397 36.477Z" fill="white"/>
<path d="M36.068 16.9619C37.3992 16.9085 38.5195 17.945 38.5728 19.2736C38.5728 19.2965 38.5728 19.3219 38.5728 19.3447C38.6668 20.4752 37.826 21.4659 36.698 21.5599C36.4694 21.5803 36.2382 21.5599 36.0147 21.5015C33.454 21.1255 32.9129 17.0381 36.068 16.9594V16.9619Z" fill="white"/>
<path d="M30.6267 39.6652C32.443 39.6118 33.8402 41.6492 32.4532 43.0972C31.6987 43.8898 30.5479 44.1641 29.5191 43.7958C28.4547 43.4224 27.8932 42.2538 28.2692 41.1894C28.3683 40.9049 28.5309 40.6483 28.7417 40.4324C29.2422 39.9319 29.9204 39.655 30.6292 39.6626L30.6267 39.6652Z" fill="white"/>
<path d="M39.65 30.5707C39.6169 29.646 40.1402 28.7924 40.9786 28.4037C41.9109 27.8779 43.0947 28.2081 43.6205 29.1404C43.6967 29.2776 43.7577 29.4224 43.8009 29.5748C44.3064 31.0152 43.4503 33.0704 41.7483 32.9815C40.5035 32.8925 39.5661 31.8154 39.6525 30.5707H39.65Z" fill="white"/>
<path d="M27.4206 41.8677C27.4206 43.9381 24.7989 44.4893 23.4119 43.3004C22.7133 42.7847 22.4288 41.8778 22.7031 41.0548C22.919 40.313 23.5592 39.7719 24.3289 39.683C25.6753 39.3857 27.4206 40.3638 27.4206 41.8677Z" fill="white"/>
<path d="M41.6416 22.5965C43.1963 22.5432 44.1311 24.1614 43.905 25.5586C43.7323 26.6941 42.6729 27.474 41.5374 27.3012C41.1132 27.2377 40.7194 27.0421 40.412 26.7474C38.9437 25.5078 39.5381 22.5889 41.6441 22.599L41.6416 22.5965Z" fill="white"/>
<path d="M11.8611 30.3802C11.8179 29.4783 12.3564 28.6476 13.1973 28.3174C13.9746 27.9922 14.8739 28.2412 15.3718 28.9194C16.0374 29.7628 16.1644 30.9136 15.6945 31.8815C15.2296 32.8087 14.1017 33.1847 13.1744 32.7198C13.0093 32.6385 12.8569 32.5318 12.7248 32.4048C12.1634 31.8815 11.8484 31.1448 11.8611 30.3776V30.3802Z" fill="white"/>
<path d="M30.5986 15.9915C29.8772 16.0245 29.176 15.7527 28.668 15.2396C27.949 14.4647 27.9948 13.2555 28.767 12.5366C28.9169 12.3994 29.0846 12.2851 29.27 12.2013C30.1846 11.7694 31.2617 11.866 32.0822 12.4553C32.5344 12.7627 32.8138 13.2632 32.8418 13.8093C32.9739 14.8864 32.2092 15.867 31.1321 16.0017C30.9543 16.0245 30.7739 16.022 30.5961 15.994L30.5986 15.9915Z" fill="white"/>
<path d="M15.994 24.8422C16.0118 25.6221 15.6942 26.374 15.1201 26.9049C14.3733 27.5883 13.2123 27.5375 12.529 26.7881C12.407 26.656 12.3079 26.5061 12.2292 26.3435C11.7821 25.4239 11.8812 24.3316 12.4832 23.5034C13.1285 22.6143 14.3758 22.4161 15.2649 23.0614C15.3538 23.1249 15.4377 23.1986 15.5139 23.2748C15.8467 23.727 16.0169 24.2782 15.994 24.8396V24.8422Z" fill="white"/>
<path d="M27.4208 13.9211C27.4004 14.5994 27.0245 15.2193 26.4326 15.5546C25.5307 16.1186 24.3901 16.1186 23.4883 15.5546C22.871 15.1481 22.5763 14.3937 22.7541 13.6773C23.0259 12.6256 23.9913 11.899 25.0785 11.9295C26.1785 11.7517 27.215 12.4985 27.3928 13.5985C27.4106 13.7052 27.4182 13.8144 27.4182 13.9211H27.4208Z" fill="white"/>
<path d="M17.3126 41.1589C17.2948 40.1935 18.062 39.3984 19.0273 39.3806C19.1493 39.3806 19.2712 39.3882 19.3906 39.4111C20.361 39.4797 21.2171 40.0665 21.6261 40.948C22.0936 41.8524 21.7404 42.9651 20.8386 43.4325C20.4982 43.6078 20.1121 43.6738 19.731 43.6205C18.4202 43.5214 17.3863 42.4697 17.3101 41.1563L17.3126 41.1589Z" fill="white"/>
<path d="M43.6256 19.8452C43.6967 20.8512 42.9397 21.7251 41.9337 21.7962C41.6365 21.8165 41.3393 21.7657 41.0649 21.6438C40.0284 21.1764 39.3502 20.1577 39.3171 19.0221C39.3425 18.1533 40.0005 17.437 40.8642 17.3353C42.2309 17.1855 43.4605 18.1737 43.6103 19.5404C43.6205 19.642 43.6256 19.7436 43.6256 19.8427V19.8452Z" fill="white"/>
<path d="M36.3221 16.1667C35.3796 16.182 34.4956 15.7146 33.9799 14.927C33.4261 14.137 33.6192 13.0472 34.4092 12.4934C34.6404 12.3308 34.9071 12.2292 35.184 12.1911C36.2281 11.9955 37.2925 12.4299 37.8997 13.3012C38.2274 13.7382 38.3417 14.2996 38.2045 14.8305C38.0013 15.6892 37.1935 16.2607 36.317 16.1667H36.3221Z" fill="white"/>
<path d="M12.1404 35.6133C12.0185 34.6911 12.6688 33.8426 13.5935 33.7233C13.7485 33.7029 13.9085 33.7055 14.0635 33.7283C15.1101 33.8706 15.9459 34.6708 16.1339 35.7124C16.454 36.698 15.9306 37.7599 14.9551 38.1054C13.4436 38.7074 12.1074 37.0384 12.143 35.6158L12.1404 35.6133Z" fill="white"/>
<path d="M16.2811 19.2686C16.4742 21.0164 13.8957 23.13 12.524 21.1383C12.0794 20.3457 12.1378 19.3651 12.6713 18.631C13.1235 17.8562 13.9897 17.4192 14.8814 17.5132C15.7451 17.6275 16.3624 18.4024 16.2786 19.2686H16.2811Z" fill="white"/>
<path d="M21.9081 13.9745C21.9183 14.6452 21.5906 15.2752 21.0342 15.6511C20.4931 16.0982 19.8072 16.3345 19.1036 16.3142C18.217 16.3142 17.498 15.5927 17.498 14.7036C17.498 14.5385 17.5235 14.3733 17.5743 14.2158C17.7648 13.347 18.4151 12.6484 19.2687 12.3995C20.361 11.9803 21.9945 12.5925 21.9081 13.972V13.9745Z" fill="white"/>
<path d="M48.2797 30.2581C48.2898 30.911 48.0841 31.5512 47.6954 32.0745C47.2 32.7985 46.2093 32.9839 45.4853 32.4886C45.2134 32.3031 45.0051 32.0364 44.8908 31.7264C44.2354 30.2683 45.1017 27.8575 46.9688 28.2309C47.8427 28.4926 48.3991 29.3512 48.2797 30.2581Z" fill="white"/>
<path d="M25.1827 44.6265C25.8356 44.6443 26.4605 44.9059 26.9305 45.3606C27.5859 45.9525 27.6367 46.9636 27.0448 47.619C26.8339 47.8527 26.5621 48.0179 26.2573 48.0966C25.2945 48.3989 24.2428 48.1804 23.4781 47.5199C23.1809 47.2837 22.9777 46.9484 22.9091 46.5775C22.6296 45.2489 23.9227 44.568 25.1801 44.629L25.1827 44.6265Z" fill="white"/>
<path d="M48.2186 25.5051C48.3659 26.4044 47.7537 27.2529 46.8544 27.4002C46.3489 27.4815 45.8332 27.324 45.4598 26.9734C44.6443 26.158 44.3979 24.9335 44.8298 23.864C45.1981 23.0511 46.1558 22.6904 46.9687 23.0562C47.1491 23.1375 47.3117 23.2518 47.4514 23.3915C47.9747 23.9682 48.2516 24.7277 48.2211 25.5051H48.2186Z" fill="white"/>
<path d="M38.9769 14.071C38.9235 12.6992 40.5417 12.3232 41.5452 12.91C42.2997 13.2454 42.8585 13.9084 43.0567 14.7086C43.2929 15.4936 42.8509 16.3217 42.066 16.5605C41.85 16.6266 41.6214 16.6418 41.3978 16.6037C40.0616 16.5021 39.0175 15.4097 38.9769 14.071Z" fill="white"/>
<path d="M15.0237 43.0718C13.6875 42.9066 12.6663 41.7965 12.6129 40.4501C12.5824 39.6702 13.1921 39.0123 13.9745 38.9818C14.0482 38.9792 14.1219 38.9818 14.1956 38.9894C15.5165 39.1037 16.5555 40.1707 16.6318 41.4967C16.6927 42.3046 16.0881 43.0108 15.2803 43.0718C15.1939 43.0794 15.1101 43.0768 15.0237 43.0692V43.0718Z" fill="white"/>
<path d="M30.2404 7.84964C31.3403 7.84964 32.6867 8.36534 32.6766 9.59741C32.6766 10.1741 32.3336 10.6948 31.8027 10.926C30.8932 11.3833 29.8085 11.3223 28.9549 10.7685C28.6222 10.5755 28.3757 10.263 28.264 9.89463C27.8626 8.59397 29.1633 7.81662 30.2378 7.84964H30.2404Z" fill="white"/>
<path d="M11.1879 30.6595C11.0659 33.6038 8.00734 33.1236 7.83459 30.563C7.77362 30.0244 7.88032 29.4833 8.13944 29.0083C8.53065 28.2766 9.44264 28.0023 10.1743 28.3935C10.38 28.5027 10.5553 28.6602 10.69 28.8508C11.0481 29.3842 11.2234 30.0193 11.1879 30.6595Z" fill="white"/>
<path d="M45.696 17.8866C47.0831 18.0772 48.0509 19.355 47.8604 20.742C47.8528 20.803 47.8401 20.8665 47.8274 20.9275C47.7308 21.466 47.3549 21.9106 46.8392 22.0986C45.2489 22.5101 43.9482 20.3508 44.3064 18.9612C44.4538 18.316 45.0355 17.8663 45.696 17.8866Z" fill="white"/>
<path d="M20.511 47.8781C19.4745 47.8832 18.5193 47.3167 18.0291 46.4022C17.6429 45.7392 17.8665 44.8881 18.5295 44.502C18.7251 44.3877 18.9461 44.3216 19.1748 44.314C20.0817 44.1718 21.0013 44.502 21.611 45.1879C22.2486 45.7493 22.3121 46.7197 21.7532 47.3574C21.4408 47.713 20.9835 47.9036 20.511 47.8781Z" fill="white"/>
<path d="M7.88778 25.4874C7.88778 24.7151 8.20279 23.9759 8.76167 23.4424C9.32309 22.886 10.23 22.8886 10.7889 23.4526C10.8905 23.5542 10.9769 23.6736 11.0429 23.8006C11.4138 24.5398 11.4138 25.4112 11.0429 26.1504C10.2478 28.2208 7.78363 27.6873 7.89032 25.4874H7.88778Z" fill="white"/>
<path d="M24.9743 11.2233C24.4891 11.2665 24.0013 11.1445 23.5949 10.8727C23.0055 10.4434 22.8277 9.64065 23.1834 9.00302C23.3967 8.63213 23.7295 8.34507 24.1258 8.19011C24.8981 7.80651 25.7999 7.78873 26.59 8.13676C27.3114 8.43652 27.6518 9.26468 27.3521 9.98614C27.2708 10.1792 27.1489 10.3545 26.9914 10.4942C26.4528 11.0124 25.7186 11.2766 24.9743 11.2182V11.2233Z" fill="white"/>
<path d="M14.254 16.8654C11.983 16.6647 12.7527 13.695 14.4471 13.1183C15.6792 12.5671 16.9621 13.1615 16.7969 14.5257C16.5886 15.7984 15.5395 16.7637 14.254 16.8679V16.8654Z" fill="white"/>
<path d="M11.4952 35.9613C11.5384 36.9317 10.8322 37.9885 9.74748 37.6659C8.44427 37.1273 7.77108 35.6793 8.2004 34.338C8.49 33.6267 9.30037 33.2863 10.0117 33.5759C10.1006 33.6115 10.1844 33.6572 10.2632 33.7105C11.0227 34.211 11.4851 35.0544 11.4952 35.9638V35.9613Z" fill="white"/>
<path d="M36.0324 11.4747C35.1992 11.4747 34.4015 11.1369 33.8223 10.5399C33.2761 10.0064 33.2685 9.13253 33.802 8.5889C33.957 8.43139 34.1475 8.312 34.3558 8.24341C35.3973 7.93602 36.5227 8.23579 37.2747 9.02076C37.5135 9.25447 37.6659 9.56185 37.7116 9.89464C37.8437 10.987 37.0308 11.5103 36.035 11.4747H36.0324Z" fill="white"/>
<path d="M19.5582 11.6678C18.7885 11.7288 18.1153 11.1547 18.0543 10.385C18.0238 10.009 18.1483 9.63556 18.3973 9.35104C19.106 8.51272 20.2136 8.12913 21.2882 8.3476C21.9436 8.48986 22.3602 9.13511 22.2205 9.79052C22.2053 9.85657 22.1875 9.92008 22.1621 9.98105C22.0097 10.4409 21.6997 10.8346 21.2882 11.0912C20.7852 11.457 20.1806 11.6577 19.5582 11.6678Z" fill="white"/>
<path d="M11.6425 19.7055C11.6425 20.709 11.0938 21.6311 10.2097 22.1087C9.58228 22.4567 8.78968 22.2306 8.43911 21.6006C8.31972 21.3847 8.26383 21.1408 8.27907 20.8944C8.19524 19.9697 8.57375 19.0628 9.29267 18.4735C9.65595 18.1534 10.1462 18.0187 10.6213 18.1076C11.3123 18.3134 11.7467 18.9942 11.6425 19.7055Z" fill="white"/>
<path d="M14.6833 43.6764C15.8773 43.7399 16.8934 44.5655 17.1983 45.7213C17.3812 46.3463 17.0204 47.0017 16.3955 47.1821C16.2278 47.2303 16.0526 47.2405 15.8798 47.2151C14.7544 47.0703 13.8069 46.3082 13.4258 45.2412C13.2023 44.6341 13.5147 43.9609 14.1193 43.7373C14.2997 43.6713 14.4928 43.651 14.6833 43.6764Z" fill="white"/>
<path d="M47.1721 16.088C47.2457 16.6418 46.857 17.1524 46.3032 17.2261C46.2067 17.2388 46.1076 17.2388 46.0111 17.2236C44.6418 17.0203 43.6384 15.8289 43.6689 14.4444C43.9128 12.8465 45.7647 13.3444 46.448 14.2005C46.8926 14.7315 47.1466 15.3945 47.1721 16.088Z" fill="white"/>
<path d="M9.89483 38.4077C10.9084 38.3467 11.8331 39.6474 12.0363 40.5645C12.3234 41.7534 11.4063 42.7492 10.2378 42.1116C9.39437 41.6721 8.81517 40.8515 8.68307 39.9091C8.51795 39.2638 8.90917 38.6084 9.55442 38.4433C9.66619 38.4153 9.78305 38.4026 9.89737 38.4077H9.89483Z" fill="white"/>
<path d="M40.9506 12.0438C39.9624 11.993 39.0656 11.4494 38.5652 10.5933C38.1892 10.0674 38.3112 9.33581 38.837 8.95984C38.9996 8.84298 39.1876 8.77185 39.3857 8.74899C40.7474 8.56354 42.0226 9.46537 42.3046 10.8118C42.3707 11.4367 41.9185 11.993 41.2935 12.0591C41.1792 12.0718 41.0624 12.0667 40.9506 12.0438Z" fill="white"/>
<path d="M51.7395 30.1972C51.7395 31.1244 51.3381 32.5648 50.1848 32.4937C48.6377 32.293 48.6047 29.872 49.3541 28.8432C49.692 28.2691 50.4287 28.076 51.0028 28.4139C51.1654 28.5104 51.3026 28.6425 51.4067 28.8C51.6481 29.2243 51.7649 29.7095 51.7395 30.1972Z" fill="white"/>
<path d="M51.714 25.4975C51.7267 25.9243 51.6454 26.346 51.4778 26.7372C51.2644 27.3266 50.614 27.634 50.0247 27.4206C49.8265 27.3495 49.6512 27.225 49.5217 27.0599C48.8333 26.2165 48.6376 25.0708 49.006 24.047C49.2194 23.4424 49.8799 23.1223 50.487 23.3357C50.6826 23.4043 50.8554 23.5237 50.99 23.6812C51.4625 24.1664 51.7216 24.8218 51.714 25.4975Z" fill="white"/>
<path d="M13.6698 11.1775C13.9111 9.92 15.0085 9.00801 16.2914 9.00293C17.2339 9.00293 17.681 9.64056 17.4092 10.4281C17.1247 11.2359 16.4794 11.8634 15.6614 12.1225C14.7444 12.4985 13.6342 12.3841 13.6698 11.18V11.1775Z" fill="white"/>
<path d="M10.0624 17.442C9.41205 17.4166 8.90398 16.8704 8.92938 16.2175C8.93446 16.0727 8.96748 15.9305 9.02337 15.7984C9.2139 14.833 9.91758 14.0532 10.8575 13.7636C11.9499 13.413 12.5341 14.4012 12.2369 15.3614C12.0286 16.1845 11.4799 16.8755 10.7254 17.2667C10.5247 17.3861 10.2936 17.4471 10.0624 17.442Z" fill="white"/>
<path d="M51.4526 34.7724C51.4576 35.5675 51.1426 36.3322 50.5787 36.8961C50.345 37.1299 50.035 37.2772 49.7048 37.3077C48.0104 37.3077 48.4829 34.7318 49.1815 33.8579C49.4279 33.4895 49.8318 33.2533 50.2738 33.2202C51.1477 33.1415 51.4881 34.0763 51.4526 34.7749V34.7724Z" fill="white"/>
<path d="M51.2951 21.1713C51.3662 22.0452 50.6498 22.8479 49.7404 22.4389C48.9274 21.9207 48.4168 21.0417 48.3686 20.0815C48.2644 19.2686 48.7877 18.3337 49.715 18.5954C50.7159 19.0552 51.3408 20.0713 51.2951 21.1713Z" fill="white"/>
<path d="M4.70732 30.1337C4.68191 29.712 4.76574 29.2903 4.95119 28.9118C5.17728 28.363 5.80475 28.0988 6.35347 28.3249C6.58972 28.4215 6.78279 28.5993 6.89965 28.8254C7.45091 29.7298 7.48393 30.8602 6.98602 31.7951C6.79295 32.3057 6.22137 32.5597 5.7133 32.3667C5.52023 32.293 5.35257 32.1609 5.24079 31.9856C4.84196 31.4547 4.65143 30.7967 4.70732 30.1337Z" fill="white"/>
<path d="M30.5123 7.30862C29.6385 7.30862 28.4597 7.06474 28.2489 6.06892C28.0837 5.19504 29.0084 4.78604 29.707 4.72253C30.5555 4.57265 31.4243 4.79874 32.0924 5.34238C32.4887 5.72343 32.5014 6.35344 32.1204 6.74974C32.0848 6.78785 32.0467 6.82087 32.0035 6.85389C31.5615 7.14858 31.0407 7.30608 30.5098 7.30862H30.5123Z" fill="white"/>
<path d="M25.8482 4.758C28.1802 4.758 27.9973 6.88174 25.8482 7.29073C25.2156 7.44824 24.5475 7.38727 23.9531 7.11545C23.445 6.90714 23.2011 6.3254 23.4094 5.81479C23.4678 5.67253 23.5568 5.54805 23.6736 5.44643C24.2808 4.9409 25.0606 4.69449 25.8482 4.75546V4.758Z" fill="white"/>
<path d="M4.70728 25.8202C4.66155 25.0378 4.93845 24.2706 5.477 23.6964C5.86314 23.3179 6.48299 23.323 6.8615 23.7091C6.92247 23.7701 6.97328 23.8387 7.01646 23.9149C7.54232 24.9133 7.43308 26.1276 6.73702 27.0167C6.49315 27.413 6.01556 27.6035 5.56592 27.479C4.9105 27.2961 4.70982 26.4223 4.70982 25.8202H4.70728Z" fill="white"/>
<path d="M7.61607 35.6819C7.67704 36.5558 6.97082 37.5414 6.04359 36.9038C5.24083 36.2408 4.83438 35.2119 4.96902 34.178C5.15192 32.8849 6.384 32.7808 7.04703 33.8122C7.43571 34.3558 7.63385 35.0138 7.61607 35.6819Z" fill="white"/>
<path d="M34.582 5.00188C35.5321 4.94599 36.4441 5.38547 36.9928 6.16282C37.3764 6.96558 36.6879 7.61337 35.9004 7.61337C34.8614 7.69466 33.8504 7.25772 33.2 6.44226C32.6589 5.50741 33.7513 4.93075 34.5794 5.00188H34.582Z" fill="white"/>
<path d="M46.2548 11.9549C46.3082 12.7068 45.5384 13.0218 44.9008 12.8288C43.905 12.5646 43.1251 11.7821 42.866 10.7838C42.6119 9.76255 43.6255 9.38657 44.4461 9.75238C45.4063 10.1004 46.0998 10.9438 46.2548 11.9549Z" fill="white"/>
<path d="M21.4458 5.16699C22.3807 5.16699 23.1403 5.73603 22.5128 6.66834C21.8193 7.5092 20.7371 7.9309 19.6574 7.77848C19.1341 7.73022 18.7505 7.26533 18.7988 6.74202C18.8216 6.49814 18.9385 6.27205 19.1239 6.11201C19.7412 5.49978 20.577 5.15937 21.4484 5.16953L21.4458 5.16699Z" fill="white"/>
<path d="M5.12636 21.3644C5.15176 20.582 5.46169 19.8351 6.00024 19.2686C6.19331 19.04 6.46513 18.8876 6.75981 18.8418C7.59051 18.6767 7.89535 19.6548 7.8166 20.3178C7.76071 21.1866 7.33901 21.9894 6.65565 22.5279C5.71318 23.1401 5.08317 22.2663 5.12636 21.367V21.3644Z" fill="white"/>
<path d="M9.6001 43.816C9.6001 43.0742 10.0548 42.8202 10.667 42.8558C10.9567 42.8786 11.2335 42.9853 11.4622 43.1606C12.1608 43.6357 12.6485 44.3622 12.8238 45.1878C12.9991 46.0617 12.3615 46.5063 11.5562 46.209C10.5146 45.828 9.76522 44.9109 9.6001 43.816Z" fill="white"/>
<path d="M50.5355 16.8654C50.759 17.2922 50.5939 17.8206 50.1671 18.0441C49.7658 18.255 49.2678 18.1229 49.0265 17.7393C48.2923 17.2439 47.7894 16.4717 47.6369 15.5978C47.4642 15.1024 47.7258 14.5588 48.2238 14.386C48.5337 14.2793 48.8766 14.3378 49.1307 14.541C49.9283 15.0618 50.4466 15.9179 50.538 16.8654H50.5355Z" fill="white"/>
<path d="M15.4074 47.6672C16.2914 47.7384 17.1043 48.1778 17.6429 48.8815C17.8512 49.1229 17.9604 49.4353 17.9477 49.7554C17.9477 50.5328 17.0738 50.6293 16.4464 50.4794C15.6538 50.3168 14.9653 49.8291 14.5512 49.133C14.0711 48.2591 14.3861 47.6393 15.4074 47.6647V47.6672Z" fill="white"/>
<path d="M8.27914 40.3384C8.34011 41.3418 7.58055 41.7534 6.79303 41.0903C6.1554 40.5772 5.72862 39.8456 5.59653 39.0377C5.45681 38.3137 5.89375 37.4906 6.72444 37.7802C7.67454 38.2832 8.27152 39.2663 8.27914 40.3409V40.3384Z" fill="white"/>
<path d="M13.1463 10.8117C13.1438 10.9362 13.1234 11.0607 13.0853 11.1775C12.7932 12.2013 11.9422 12.9685 10.893 13.1514C9.93275 13.3343 9.73968 12.4528 10.0801 11.7364C10.3926 11.0327 10.9464 10.4662 11.645 10.1385C12.275 9.87685 13.1997 9.87685 13.1463 10.8117Z" fill="white"/>
<path d="M38.8473 5.64972C39.617 5.69291 40.3486 6.00283 40.9177 6.5236C41.8957 7.45084 41.2225 8.45428 39.9752 8.27137C39.363 8.15198 38.7914 7.87762 38.3163 7.47624C37.4602 6.75224 37.5212 5.56335 38.8498 5.64972H38.8473Z" fill="white"/>
<path d="M8.55093 15.5977C8.51028 16.5732 8.01237 17.475 7.20454 18.0263C6.12234 18.7071 5.6854 17.6859 5.97246 16.7256C6.14775 15.8441 6.74219 15.1023 7.56273 14.734C8.20036 14.4901 8.60173 14.9601 8.55093 15.5977Z" fill="white"/>
<path d="M54.3001 30.0474C54.3458 30.751 54.1223 31.4446 53.6701 31.9857C53.4287 32.2676 53.0045 32.3007 52.7225 32.0593C52.6971 32.0365 52.6717 32.0111 52.6489 31.9857C52.0773 31.0991 52.0112 29.9813 52.4736 29.0338C52.7962 28.264 53.6523 28.0024 54.0638 28.8509C54.2264 29.2294 54.3077 29.6358 54.3001 30.0474Z" fill="white"/>
<path d="M54.2571 25.9954C54.214 26.5899 54.153 27.4816 53.4366 27.5933C53.0352 27.6365 52.7812 27.3317 52.5627 27.0243C52.141 26.28 51.9962 25.4086 52.1613 24.5703C52.2477 23.9149 52.9641 23.3738 53.5331 23.8971C54.031 24.4788 54.2902 25.2283 54.2571 25.9929V25.9954Z" fill="white"/>
<path d="M15.5826 8.58381C14.3505 8.63716 14.6045 7.44065 15.232 6.83604C15.8036 6.28986 16.5581 5.97994 17.3456 5.96216C17.8511 5.96216 18.3592 6.22382 18.2195 6.79286C17.7647 7.85219 16.7333 8.55079 15.5826 8.58381Z" fill="white"/>
<path d="M51.8792 35.2982C51.8792 34.7114 52.0291 34.1347 52.3162 33.6216C53.0859 32.3209 54.1249 32.8366 54.0639 34.2338C54.0614 35.1179 53.6803 35.9562 53.0148 36.5405C52.1764 37.0028 51.8081 36.0857 51.8792 35.3008V35.2982Z" fill="white"/>
<path d="M53.8378 21.8979C53.8912 22.4491 53.5762 23.2773 52.8954 22.9801C52.6998 22.9013 52.527 22.7718 52.3974 22.6041C51.8487 21.9106 51.5845 21.0392 51.6557 20.1577C51.615 19.7411 51.9199 19.3677 52.339 19.327C52.6413 19.2966 52.9335 19.4515 53.0808 19.7208C53.5686 20.3432 53.8353 21.1078 53.8404 21.8953L53.8378 21.8979Z" fill="white"/>
<path d="M46.6384 11.3884C46.5851 11.0556 46.8112 10.7406 47.1439 10.6873C47.2684 10.6669 47.398 10.6873 47.5123 10.7432C48.5208 11.1547 49.2626 12.0311 49.5039 13.093C49.5039 13.6951 49.2169 13.9669 48.6301 13.7738C47.5504 13.4461 46.7705 12.5087 46.6384 11.3884Z" fill="white"/>
<path d="M30.1108 2.43364C30.7612 2.39554 31.4014 2.59115 31.9196 2.9849C32.3819 3.48281 31.8662 4.02391 31.3429 4.15601C30.5376 4.39734 29.6739 4.34399 28.9067 4.00867C28.2767 3.77241 27.9896 3.02047 28.6882 2.66228C29.1404 2.48191 29.6256 2.40316 30.1134 2.43618L30.1108 2.43364Z" fill="white"/>
<path d="M2.36497 29.8822C2.34211 29.4173 2.46659 28.96 2.72316 28.5714C3.20329 27.9871 3.84092 28.424 4.03399 29.0261C4.29819 29.7577 4.33883 30.5528 4.1483 31.3073C4.04415 31.8408 3.52846 32.3819 3.02039 31.9094C2.57074 31.3327 2.33703 30.6138 2.36497 29.8822Z" fill="white"/>
<path d="M11.3453 46.6536C11.513 46.6409 11.6806 46.6689 11.8356 46.7324C12.6536 46.9966 13.3217 47.5936 13.6799 48.3735C13.7688 48.5538 13.8171 48.7494 13.8272 48.9501C13.8272 49.2651 13.784 49.3337 13.4767 49.4404C13.276 49.5065 13.0575 49.5065 12.8568 49.4404C12.3157 49.3032 11.8331 48.9984 11.4774 48.5665C11.0227 48.122 10.037 46.6435 11.3453 46.6536Z" fill="white"/>
<path d="M2.44391 25.9954C2.40326 25.2791 2.64206 24.5754 3.10694 24.0292C4.05958 23.3204 4.44317 24.9031 4.34664 25.5763C4.32632 26.2114 4.10276 26.8236 3.70901 27.3241C3.52356 27.5781 3.16791 27.634 2.91641 27.4485C2.8402 27.3926 2.78178 27.3215 2.74113 27.2377C2.53028 26.8592 2.42613 26.4298 2.44391 25.998V25.9954Z" fill="white"/>
<path d="M25.358 4.34646C24.5882 4.42522 23.2266 3.95271 24.1005 3.0458C24.3164 2.83749 24.5857 2.69015 24.8778 2.62664C25.4926 2.46406 26.1353 2.43103 26.7653 2.53011C27.9009 2.70539 27.8323 3.70121 26.8441 4.06702C26.3741 4.26263 25.8686 4.35917 25.358 4.34646Z" fill="white"/>
<path d="M7.12564 41.9184C8.18243 41.9184 9.67616 43.971 9.10966 44.9236C8.97756 45.1421 8.89119 45.1853 8.64731 45.1243C8.2815 45.043 7.94109 44.8754 7.65149 44.634C7.07737 44.1615 6.69632 43.4985 6.57692 42.7643C6.53881 42.6068 6.53881 42.4417 6.57692 42.2842C6.70902 41.9794 6.81317 41.9082 7.12818 41.9184H7.12564Z" fill="white"/>
<path d="M44.4361 9.24689C43.359 9.09193 42.4267 8.41619 41.9465 7.43815C41.6849 6.6608 42.4699 6.44233 43.0745 6.6608C43.8442 6.8996 44.5072 7.39497 44.9518 8.06816C45.3176 8.60926 45.249 9.26467 44.4361 9.24689Z" fill="white"/>
<path d="M2.68018 33.962C2.6878 33.6826 2.7386 33.4057 2.82752 33.1415C2.90881 32.8493 3.21111 32.6766 3.50325 32.7579C3.60233 32.7858 3.69124 32.8392 3.76237 32.9154C3.84366 32.9764 3.91479 33.05 3.97322 33.1339C4.47875 33.8528 4.7023 34.7318 4.60323 35.6056C4.46351 36.5659 3.72934 36.7336 3.23143 35.9029C2.8834 35.316 2.69288 34.6479 2.68018 33.9646V33.962Z" fill="white"/>
<path d="M51.1121 39.8581C51.1629 39.0173 51.5134 38.2196 52.1003 37.6125C52.306 37.3889 52.6007 37.2644 52.903 37.272C53.0427 37.2619 53.1748 37.3483 53.218 37.4829C53.3323 37.7598 53.3755 38.0596 53.34 38.3568C53.2688 38.9893 53.0351 39.5914 52.6591 40.1045C52.4864 40.3637 52.24 40.5669 51.9504 40.6888C51.3127 40.9327 51.1197 40.3916 51.1121 39.8581Z" fill="white"/>
<path d="M34.0409 2.73082C34.615 2.74098 35.1815 2.87562 35.6997 3.12457C35.9309 3.22111 36.1341 3.37099 36.2942 3.56152C36.7311 4.1458 36.1799 4.61831 35.5854 4.62847C34.6048 4.70468 33.6344 4.38967 32.885 3.75458C32.6869 3.53103 32.7072 3.18808 32.9308 2.98994C32.9866 2.94167 33.0501 2.90356 33.1213 2.8807C33.4134 2.76892 33.7259 2.71812 34.0383 2.73336L34.0409 2.73082Z" fill="white"/>
<path d="M4.82919 20.6733C4.82919 21.6031 4.44305 22.4922 3.76223 23.1273C3.27194 23.4322 2.88835 22.9165 2.88835 22.4541C2.77911 21.4456 3.13985 20.4447 3.86639 19.7385C4.53958 19.2761 4.87999 20.0535 4.82664 20.6733H4.82919Z" fill="white"/>
<path d="M22.1773 2.88828C22.7361 2.82731 23.4449 3.07119 23.1197 3.76216C23.0486 3.89426 22.947 4.00858 22.8225 4.09495C22.0629 4.67923 21.0951 4.92565 20.1501 4.77577C19.609 4.69702 19.3651 4.25245 19.7665 3.81551C20.4041 3.18042 21.278 2.84509 22.1773 2.88828Z" fill="white"/>
<path d="M6.93509 13.573C7.09514 12.6712 7.61591 11.8735 8.37548 11.3629C8.60157 11.2029 8.87593 11.1216 9.15283 11.1368C9.5542 11.1368 9.65074 11.5738 9.57961 11.8888C9.38146 12.8414 8.76161 13.6543 7.89281 14.0989C7.38728 14.3529 6.90461 14.2462 6.93255 13.5756L6.93509 13.573Z" fill="white"/>
<path d="M50.8148 16.1668C50.7361 15.4326 51.3661 15.0846 51.9072 15.6079C52.621 16.243 53.0452 17.1423 53.0783 18.0975C53.0783 18.7884 52.4838 18.9713 52.0037 18.542C51.3178 17.9323 50.891 17.0813 50.8148 16.1668Z" fill="white"/>
<path d="M13.6951 6.96812C14.4039 6.96812 14.254 7.72006 13.9746 8.11128C13.4868 8.88101 12.7095 9.4221 11.8178 9.61263C11.5536 9.76251 11.2183 9.67106 11.0684 9.40686C10.9439 9.18839 10.9846 8.91403 11.1649 8.73875C11.6577 7.75817 12.6104 7.09259 13.6977 6.96558L13.6951 6.96812Z" fill="white"/>
<path d="M5.35261 39.6575C5.35261 40.5314 4.84707 40.6787 4.26025 40.0589C3.70645 39.4263 3.37875 38.6261 3.3254 37.7878C3.31778 37.6379 3.34064 37.4906 3.39653 37.3509C3.57943 36.6955 4.27041 37.0968 4.54985 37.4652C5.03252 38.0977 5.3145 38.8624 5.35261 39.6575Z" fill="white"/>
<path d="M39.5711 5.37791C38.7227 5.29916 37.9224 4.95367 37.2823 4.38971C36.4694 3.51582 37.4931 3.2186 38.2603 3.41929C38.8573 3.55139 39.4213 3.80288 39.9192 4.15345C40.0843 4.26523 40.2265 4.40749 40.3383 4.57261C40.7321 5.1569 40.0513 5.38553 39.5686 5.37537L39.5711 5.37791Z" fill="white"/>
<path d="M5.6675 16.5148C5.59382 17.3582 5.21277 18.1457 4.59292 18.7249C3.89432 19.355 3.51835 18.9079 3.65045 18.0949C3.7546 17.4268 4.02388 16.7968 4.43542 16.2608C4.92571 15.6054 5.7183 15.4123 5.6675 16.5148Z" fill="white"/>
<path d="M18.3516 3.64795C18.6235 3.64795 18.9029 3.64795 19.0325 3.90199C19.1011 4.09759 19.0502 4.31606 18.9004 4.46086C18.2323 5.21027 17.2847 5.65229 16.2787 5.68278C15.7275 5.68278 15.509 5.22043 15.8951 4.80889C16.5429 4.13316 17.4168 3.71908 18.3491 3.64795H18.3516Z" fill="white"/>
<path d="M54.6482 30.3369C54.6228 29.8746 54.6838 29.4122 54.8311 28.9753C55.1182 28.0328 55.8193 28.1979 55.9845 29.0972C56.1216 29.8263 56.0708 30.5783 55.8371 31.2819C55.7863 31.4217 55.7177 31.5512 55.6364 31.6757C55.5374 31.8865 55.2884 31.9755 55.0801 31.8789C54.9912 31.8383 54.9201 31.7646 54.8769 31.6757C54.666 31.2642 54.5873 30.7967 54.6508 30.3395L54.6482 30.3369Z" fill="white"/>
<path d="M55.9945 26.2038C55.9945 28.3529 54.7879 27.9515 54.5872 26.1504C54.4932 25.5966 54.5364 25.0251 54.7091 24.4916C54.8844 24.0013 55.3391 24.1156 55.583 24.4128C55.8853 24.959 56.0276 25.5789 55.9945 26.2038Z" fill="white"/>
<path d="M45.922 7.83181C46.1964 7.84705 46.4631 7.92835 46.6994 8.06807C47.4589 8.4415 48.0153 9.13248 48.2185 9.95555C48.2896 10.2883 48.2185 10.3569 47.9035 10.3823C47.652 10.395 47.4031 10.3341 47.1871 10.207C46.58 9.88442 46.0719 9.40175 45.7188 8.80985C45.6172 8.65489 45.5511 8.4796 45.5257 8.29416C45.4546 7.91056 45.5333 7.82165 45.9195 7.83181H45.922Z" fill="white"/>
<path d="M10.3596 47.8781C10.3596 48.1931 10.3596 48.2287 10.0191 48.2363C9.75495 48.2439 9.49837 48.1575 9.29515 47.9924C8.79469 47.619 8.36283 47.1617 8.01989 46.6384C7.85222 46.3996 7.77601 46.1075 7.80141 45.8179C7.80141 45.546 7.88017 45.5029 8.1596 45.5384C9.30531 45.7899 10.1792 46.7197 10.3621 47.8806L10.3596 47.8781Z" fill="white"/>
<path d="M51.9758 14.4546C51.9758 14.7772 51.9758 15.0312 51.582 14.9271C51.3483 14.8788 51.1324 14.7645 50.9621 14.5943C50.5176 14.1548 50.1416 13.6467 49.852 13.0929C49.6589 12.7424 49.4938 11.8786 50.1314 11.965C50.322 11.9904 50.4998 12.0692 50.6471 12.1911C51.3661 12.7449 51.8437 13.5553 51.9758 14.4546Z" fill="white"/>
<path d="M14.5079 51.9656C13.5527 51.8792 12.689 51.366 12.1581 50.5684C12.0107 50.3499 11.8177 50.0882 12.0006 49.852C12.1835 49.6157 12.4553 49.7123 12.6992 49.7732C13.4765 49.9739 14.165 50.421 14.6654 51.0485C14.795 51.2009 14.8839 51.3838 14.9195 51.582C14.9982 51.9325 14.7975 51.9757 14.5079 51.9656Z" fill="white"/>
<path d="M55.6186 22.6473C55.6186 23.2773 55.2858 23.9048 54.7447 23.1807C54.2747 22.5457 54.0156 21.7785 54.0029 20.9884C54.0029 20.6302 54.1858 19.8707 54.666 20.2111C55.2858 20.869 55.6288 21.7429 55.6186 22.6473Z" fill="white"/>
<path d="M41.3977 4.32109C42.4139 4.42778 43.3157 5.01714 43.8263 5.90119C43.9914 6.20603 43.9483 6.27716 43.6078 6.36353C43.3741 6.40926 43.1353 6.39656 42.9093 6.32035C42.1446 6.08918 41.4739 5.61667 40.9964 4.97396C40.6915 4.53702 40.9176 4.2652 41.3977 4.31855V4.32109Z" fill="white"/>
<path d="M4.36694 41.3266C4.36694 40.6813 4.80389 40.8363 5.1697 41.1335C5.78954 41.6822 6.20362 42.424 6.34842 43.2395C6.34842 43.5189 6.34842 44.1133 5.94705 43.9381C4.99695 43.4071 4.39743 42.4138 4.36694 41.3266Z" fill="white"/>
<path d="M8.54072 10.7507C8.27906 10.7507 8.22571 10.6974 8.22571 10.4891C8.21809 10.3036 8.26128 10.1207 8.34765 9.95558C8.72108 9.27223 9.27996 8.71081 9.96332 8.33992C10.1056 8.26116 10.2631 8.21544 10.4257 8.2002C10.7407 8.2002 10.8448 8.26116 10.8016 8.57617C10.5044 9.66344 9.63561 10.4992 8.53818 10.7507H8.54072Z" fill="white"/>
<path d="M30.2939 2.15412C29.8112 2.15666 29.3311 2.08299 28.8688 1.93565C28.724 1.89754 28.5919 1.82895 28.475 1.73496C28.1524 1.4479 28.4039 1.07192 28.7722 1.0262C29.7198 0.779782 30.7258 0.886477 31.6022 1.32342C32.3541 2.0144 30.6496 2.17952 30.2914 2.15412H30.2939Z" fill="white"/>
<path d="M26.3638 0.975407C26.783 0.975407 27.6645 0.975407 27.7178 1.41235C27.7712 1.84929 27.3596 1.85691 27.1234 1.95345C26.3943 2.22272 25.6068 2.28877 24.8421 2.14651C24.5373 2.14651 24.0114 1.85945 24.3366 1.50888C24.9437 1.13291 25.65 0.947463 26.3638 0.975407Z" fill="white"/>
<path d="M2.20006 25.6703C2.21276 26.1835 2.11623 26.6915 1.92062 27.164C1.81647 27.4613 1.45827 27.9668 1.17883 27.5298C1.095 27.3901 1.03403 27.2352 1.00355 27.0751C0.871451 26.3638 0.924799 25.6297 1.16105 24.9438C1.21948 24.7278 1.34142 24.5322 1.51162 24.3849C1.73771 24.2096 1.84441 24.2274 1.98413 24.4814C2.16195 24.8523 2.23562 25.2613 2.2026 25.6703H2.20006Z" fill="white"/>
<path d="M2.13898 30.2404C2.13898 30.5909 2.05261 31.8052 1.5801 31.7773C1.35401 31.7773 1.24731 31.5842 1.16856 31.4013C0.886581 30.6265 0.828152 29.7882 1.00344 28.9804C1.07457 28.7441 1.11775 28.3681 1.4226 28.3503C1.57756 28.3503 1.71728 28.4443 1.78079 28.5866C2.03228 29.0997 2.15676 29.6662 2.13898 30.2378V30.2404Z" fill="white"/>
<path d="M6.76752 12.8568C6.76752 13.5808 5.76408 15.1532 5.01976 15.2853C4.81907 15.2853 4.74794 15.2853 4.70475 15.0923C4.66157 14.9322 4.66157 14.762 4.70475 14.602C4.93847 13.8221 5.39065 13.126 6.00542 12.5926C6.44998 12.2776 6.81833 12.1988 6.76498 12.8542L6.76752 12.8568Z" fill="white"/>
<path d="M12.8212 6.81069C12.1582 6.81069 12.3767 6.29499 12.6459 5.9368C13.1058 5.44397 13.6672 5.05276 14.287 4.79364C14.5182 4.69457 14.7722 4.65646 15.0212 4.68949C15.3184 4.75046 15.354 4.82159 15.2574 5.10103C15.2092 5.25599 15.1253 5.39571 15.0136 5.51256C14.5334 6.04096 13.9339 6.44742 13.2658 6.70145C13.1261 6.7675 12.9737 6.80561 12.8212 6.81577V6.81069Z" fill="white"/>
<path d="M33.3347 1.1406C33.9342 1.14568 34.5286 1.26762 35.0824 1.49879C35.2907 1.58262 35.4762 1.71472 35.6235 1.88239C35.7709 2.08308 35.7556 2.17961 35.5448 2.30917C34.8284 2.71054 33.4744 2.30917 32.7834 1.9586C32.6005 1.85444 32.3465 1.74775 32.4074 1.46069C32.4684 1.17363 32.7301 1.21681 32.9307 1.17363C33.0628 1.15076 33.1975 1.13806 33.3321 1.13806L33.3347 1.1406Z" fill="white"/>
<path d="M1.161 33.3244C1.15084 33.05 1.21181 32.7757 1.33629 32.5293C1.43282 32.354 1.50141 32.3362 1.66908 32.4429C1.82912 32.542 1.95614 32.6842 2.03489 32.8544C2.43118 33.6115 2.56582 34.4777 2.41848 35.3186C2.34735 35.6768 2.13904 35.8698 1.8596 35.5371C1.41504 34.8842 1.17371 34.117 1.161 33.3269V33.3244Z" fill="white"/>
<path d="M1.36154 22.6473C1.37425 22.0376 1.53429 21.4381 1.82389 20.8995C1.90772 20.7039 2.05252 20.5388 2.23543 20.427C2.62918 20.173 2.70793 20.8538 2.70793 21.118C2.71301 21.814 2.54535 22.5025 2.21764 23.1172C2.12365 23.2925 1.99663 23.4475 1.84167 23.572C1.6486 23.7193 1.56985 23.7041 1.4657 23.4932C1.36916 23.2214 1.3336 22.9318 1.36154 22.6447V22.6473Z" fill="white"/>
<path d="M54.8768 18.9713C54.8768 19.2685 54.8768 19.5124 54.6329 19.6013C54.3891 19.6902 54.257 19.5048 54.135 19.3473C53.7082 18.7427 53.411 18.0542 53.2611 17.3302C53.157 16.8501 53.2611 16.116 53.8734 16.6748C54.4195 17.3302 54.7676 18.1279 54.8768 18.9713Z" fill="white"/>
<path d="M20.3611 2.41585C20.4373 2.2177 20.5821 2.05257 20.7726 1.9535C21.489 1.46067 22.3705 1.2676 23.2266 1.4124C23.3739 1.4124 23.5924 1.45559 23.6381 1.61309C23.7093 2.30407 21.7862 2.71307 21.2451 2.70545C20.92 2.76642 20.5897 2.65718 20.3636 2.41839L20.3611 2.41585Z" fill="white"/>
<path d="M36.9597 1.78831C37.7345 1.84419 38.4788 2.11601 39.1089 2.57328C39.2664 2.68759 39.4493 2.8451 39.3705 3.06357C39.2918 3.28204 39.0479 3.27442 38.8548 3.26426C38.0292 3.20075 37.2392 2.91369 36.566 2.43356C36.4262 2.33702 36.2433 2.22271 36.3043 2.02202C36.3653 1.82133 36.7311 1.78577 36.9597 1.78577V1.78831Z" fill="white"/>
<path d="M3.23893 38.7049C3.23893 38.931 3.23893 39.246 3.05602 39.3248C2.87312 39.4035 2.68005 39.1495 2.54033 38.9742C2.06782 38.3569 1.80108 37.6049 1.78076 36.825C1.78076 36.6244 1.78076 36.3449 1.97383 36.2662C2.1669 36.1874 2.31424 36.4237 2.42855 36.571C2.90106 37.1883 3.18304 37.9276 3.24147 38.7024L3.23893 38.7049Z" fill="white"/>
<path d="M11.2767 50.6903C11.0684 50.6522 10.8754 50.5658 10.7077 50.4363C10.2606 50.1187 9.84905 49.7529 9.48577 49.3439C9.33589 49.1763 9.22158 48.9807 9.15299 48.7673C8.9777 48.277 9.4934 48.4523 9.76521 48.5564C10.474 48.8587 11.0811 49.3592 11.513 49.9968C11.5917 50.1086 11.6502 50.2331 11.6883 50.3626C11.6959 50.6421 11.6959 50.6954 11.2767 50.6852V50.6903Z" fill="white"/>
<path d="M7.65147 46.6181C7.65147 46.89 7.58034 46.9408 7.35425 46.8798C7.17643 46.8265 7.0113 46.735 6.87412 46.608C6.38891 46.1761 5.99008 45.6579 5.6954 45.0787C5.60394 44.8856 5.54806 44.6798 5.53027 44.4665C5.53027 44.0905 6.0104 44.3013 6.1679 44.4665C6.75727 44.9364 7.23231 45.5334 7.55748 46.2142C7.60575 46.3438 7.63877 46.4784 7.65401 46.6156L7.65147 46.6181Z" fill="white"/>
<path d="M50.7184 11.457C50.7184 11.9016 50.1062 11.5967 49.9157 11.457C49.2247 10.9769 48.7192 10.2732 48.4829 9.46538C48.4829 9.12497 48.5363 9.064 48.8589 9.20372C49.0443 9.27993 49.2145 9.38663 49.3644 9.51873C49.7836 9.91248 50.1621 10.3494 50.4923 10.8194C50.627 11.0074 50.7057 11.2284 50.7184 11.457Z" fill="white"/>
<path d="M46.6386 7.61343C45.7876 7.44323 45.0331 6.9631 44.5149 6.26704C44.4132 6.15273 44.3345 6.01809 44.2888 5.87329C44.0957 5.32203 44.7435 5.55066 45.0229 5.6726C45.6504 5.9876 46.2093 6.422 46.6742 6.94786C46.7707 7.05963 46.8469 7.19173 46.8926 7.33145C46.9612 7.56771 46.9282 7.61851 46.6386 7.61089V7.61343Z" fill="white"/>
<path d="M17.3379 3.56916C17.1626 3.56916 16.901 3.56916 16.84 3.41165C16.779 3.25415 16.9721 3.13221 17.0839 3.0179C17.5665 2.56063 18.1762 2.25579 18.8316 2.14401C19.0603 2.08559 19.294 2.0551 19.5302 2.05764C19.6446 2.05764 19.7665 2.05764 19.8351 2.15418C19.9037 2.25071 19.7919 2.38027 19.7309 2.48696C19.0781 3.10935 18.2347 3.4904 17.3379 3.56916Z" fill="white"/>
<path d="M2.08567 19.2762C2.14155 18.4278 2.48704 17.6225 3.06371 16.995C3.15008 16.9086 3.24661 16.7765 3.36855 16.8121C3.49049 16.8477 3.51589 17.0306 3.51589 17.1627C3.50827 18.0442 3.20088 18.8977 2.64201 19.5836C2.52769 19.7233 2.37019 19.9063 2.17966 19.8275C1.98659 19.7488 2.09329 19.5227 2.06534 19.355L2.08313 19.2762H2.08567Z" fill="white"/>
<path d="M6.01803 11.9549C6.01803 11.7771 6.05613 11.5992 6.13234 11.4392C6.43973 10.7838 6.90969 10.2148 7.49398 9.78797C7.65148 9.66603 7.87757 9.50853 8.02745 9.62285C8.17479 9.73716 8.07064 9.99882 8.02745 10.1741C7.70737 10.9083 7.18405 11.5383 6.51594 11.9828C6.35082 12.0692 5.98246 12.2699 6.01803 11.9574V11.9549Z" fill="white"/>
<path d="M53.7235 16.088C53.5076 16.0398 53.312 15.9204 53.1723 15.7476C52.6159 15.1506 52.2323 14.4139 52.0621 13.6163C52.0621 13.5019 51.991 13.3546 52.0621 13.2657C52.1333 13.1793 52.2273 13.2657 52.306 13.2657C52.3822 13.3063 52.4508 13.3571 52.5169 13.413C53.1164 13.9846 53.5432 14.7137 53.7489 15.519C53.8226 15.7044 53.8124 15.9102 53.7235 16.088Z" fill="white"/>
<path d="M9.57212 8.05036C9.57466 7.89286 9.62801 7.74044 9.71946 7.61342C10.1589 6.93768 10.7915 6.41183 11.5358 6.10191C11.7009 6.04094 11.9372 5.90884 12.0515 6.03078C12.1658 6.15271 12.0515 6.39659 11.9194 6.57187C11.5104 7.11043 10.9947 7.55753 10.4079 7.89032C10.1691 8.07576 9.85664 8.13419 9.56958 8.04782L9.57212 8.05036Z" fill="white"/>
<path d="M56.7797 27.7686C56.5993 27.6644 56.4647 27.4968 56.4037 27.2961C56.1293 26.5441 56.0684 25.7312 56.2284 24.9463C56.2284 24.8142 56.2284 24.6058 56.4291 24.5804C56.6298 24.555 56.673 24.7557 56.7517 24.8954C57.1582 25.8074 57.1658 26.849 56.7771 27.7686H56.7797Z" fill="white"/>
<path d="M56.876 32.9992C56.8709 33.6877 56.6957 34.3659 56.3705 34.9731C56.2841 35.1128 56.1088 35.4278 55.9691 35.1484C55.898 35.029 55.8624 34.8943 55.865 34.7546C55.8396 33.9442 56.0148 33.1415 56.3705 32.4124C56.4315 32.2981 56.4747 32.1152 56.6423 32.1508C56.8074 32.1863 56.8176 32.3438 56.843 32.4835C56.876 32.6537 56.8887 32.8265 56.8786 32.9992H56.876Z" fill="white"/>
<path d="M4.22708 42.706C3.30747 42.0963 2.75113 41.0674 2.74097 39.9624C2.74097 39.8049 2.8629 39.815 2.96706 39.909C3.81554 40.5822 4.28297 41.6238 4.22454 42.7034L4.22708 42.706Z" fill="white"/>
<path d="M42.7086 4.21691C42.4774 4.33884 42.198 4.33884 41.9668 4.21691C41.3673 3.99844 40.7983 3.70375 40.2724 3.34302C40.1352 3.25665 40.0184 3.13979 39.932 3.00262C39.7999 2.79177 39.8355 2.7308 40.0971 2.71555C40.1962 2.70793 40.2953 2.70793 40.3943 2.71555C41.1691 2.85019 41.8855 3.22109 42.4469 3.77234C42.5765 3.89174 42.668 4.0467 42.7086 4.21691Z" fill="white"/>
<path d="M56.6855 23.1122C56.6855 23.3306 56.6855 24.1436 56.3985 23.9073C56.2867 23.8285 56.1978 23.7193 56.1445 23.5923C55.8167 22.848 55.6592 22.0376 55.6821 21.2247C55.6821 21.0926 55.6821 20.9198 55.8574 20.8919C56.0327 20.864 56.0149 20.9706 56.0581 21.0392C56.4417 21.6642 56.6576 22.378 56.6881 23.1096L56.6855 23.1122Z" fill="white"/>
<path d="M16.403 3.14231C16.2099 3.83329 14.5689 4.76814 13.7026 4.67161C13.6975 4.48362 13.7864 4.30834 13.9389 4.1991C14.5079 3.73421 15.1557 3.37602 15.8517 3.14231C16.0296 3.07626 16.2252 3.07626 16.403 3.14231Z" fill="white"/>
<path d="M3.15269 16.3929C3.15269 15.2929 3.72681 14.2742 4.6642 13.7026C4.71501 13.9465 4.69215 14.198 4.59307 14.4266C4.37206 14.9931 4.07738 15.5266 3.71919 16.0169C3.60741 16.2328 3.39402 16.3751 3.15015 16.3929H3.15269Z" fill="white"/>
<path d="M28.3809 0.32765C28.922 -0.170261 30.2252 0.0126449 30.8958 0.134582C31.1194 0.162526 31.3226 0.274302 31.4649 0.449587C30.4767 0.904311 29.331 0.858585 28.3809 0.32765Z" fill="white"/>
<path d="M0.426794 31.4547C0.208323 31.1651 0.0787647 30.8196 0.0508207 30.4589C-0.0355515 29.8924 -0.0126883 29.3132 0.121951 28.7543C0.121951 28.6146 0.25405 28.1954 0.426794 28.4571C0.769743 29.2497 0.853574 30.1312 0.663047 30.9721C0.645265 31.155 0.561433 31.3252 0.426794 31.4522V31.4547Z" fill="white"/>
<path d="M0.548613 24.7278C0.990636 25.7058 0.901723 26.8439 0.312359 27.7407C-0.1068 26.7575 -0.0204277 25.6322 0.548613 24.7278Z" fill="white"/>
<path d="M24.6846 0.591826C25.5889 -7.75307e-05 26.727 -0.106773 27.7254 0.302225C27.2453 0.853483 25.594 1.01861 24.6846 0.589286V0.591826Z" fill="white"/>
<path d="M0.960192 35.0544C0.782367 34.94 0.652808 34.7673 0.59438 34.5641C0.332723 33.8883 0.218407 33.1643 0.261593 32.4403C0.261593 32.293 0.261593 32.0897 0.426716 32.0567C0.59184 32.0237 0.602001 32.232 0.66297 32.3539C1.06435 33.1948 1.17104 34.1449 0.960192 35.0544Z" fill="white"/>
<path d="M6.94287 47.0297C7.91583 47.4387 8.66778 48.244 9.01326 49.2398C8.32229 49.2576 6.98606 47.8502 6.94287 47.0297Z" fill="white"/>
<path d="M35.0469 0.939823C34.3661 1.3412 32.9156 0.983009 32.2601 0.607036C32.1814 0.607036 32.0772 0.528284 32.095 0.42413C32.1128 0.319975 32.2271 0.28441 32.3211 0.28441C33.2255 0.187876 34.14 0.368242 34.9428 0.800103C34.9961 0.830587 35.0342 0.881394 35.0469 0.939823Z" fill="white"/>
<path d="M49.3211 9.00304C48.3024 8.67533 47.4743 7.92338 47.05 6.94026C47.5734 6.73958 48.526 7.90052 48.9096 8.23331C49.1255 8.43908 49.2703 8.70835 49.3211 9.00304Z" fill="white"/>
<path d="M0.513282 24.1156C0.289731 23.0766 0.536146 21.9944 1.18648 21.1536C1.42527 22.1926 1.17886 23.2824 0.513282 24.1156Z" fill="white"/>
<path d="M54.849 17.5284C55.6416 18.2728 56.043 19.3448 55.9312 20.4295C55.1843 19.6547 54.7931 18.603 54.849 17.5284Z" fill="white"/>
<path d="M52.5092 12.9964C51.9402 12.9964 50.7615 11.2487 50.7615 10.6898C50.7615 10.5755 50.8224 10.4967 50.919 10.5755C51.7497 11.1394 52.3213 12.0108 52.5092 12.9964Z" fill="white"/>
<path d="M24.1359 0.563861C23.2722 1.16085 22.2128 1.40218 21.1738 1.24468C21.2119 1.07701 21.3339 0.942375 21.4965 0.886487C22.2433 0.535917 23.0664 0.380955 23.8895 0.441924C23.9835 0.452085 24.0698 0.495271 24.1333 0.563861H24.1359Z" fill="white"/>
<path d="M12.9787 52.5422C12.7348 52.5448 12.4935 52.4762 12.2877 52.3415C11.9727 52.1408 10.3926 51.0917 10.5399 50.7259C10.5831 50.6954 10.6365 50.6954 10.6797 50.7259C11.6221 51.0155 12.43 51.6353 12.9507 52.4736C12.9609 52.4965 12.9711 52.5194 12.9762 52.5422H12.9787Z" fill="white"/>
<path d="M43.0032 3.90955C44.032 4.09245 44.944 4.68182 45.5359 5.543C44.4867 5.40836 43.557 4.80883 43.0032 3.90955Z" fill="white"/>
<path d="M3.89429 42.9498C4.76817 43.5367 5.37278 44.4486 5.57093 45.4826C4.66656 44.9262 4.05179 43.999 3.89429 42.9498Z" fill="white"/>
<path d="M35.5776 0.896736C36.5989 0.79004 37.6175 1.10505 38.4 1.77062C37.3788 1.89256 36.3524 1.57501 35.5776 0.896736Z" fill="white"/>
<path d="M1.78834 38.4C1.09482 37.6506 0.759497 36.637 0.861111 35.6208C1.54955 36.3728 1.88488 37.3839 1.78834 38.4Z" fill="white"/>
<path d="M7.40513 9.51105C7.7684 8.61431 8.43905 7.87506 9.30024 7.43304C9.36121 7.38985 9.42217 7.31872 9.4933 7.43304C9.56443 7.54735 9.4933 7.54735 9.4933 7.60832C9.41709 7.81917 9.2977 8.01224 9.14273 8.17736C8.82011 8.54063 8.47462 8.88358 8.11135 9.20875C7.9132 9.38404 7.66679 9.49073 7.40259 9.51359L7.40513 9.51105Z" fill="white"/>
<path d="M2.08569 17.9399C2.15682 18.9154 1.84181 19.8808 1.2118 20.6302C1.13051 19.6521 1.44552 18.6843 2.08569 17.9399Z" fill="white"/>
<path d="M12.7526 4.4862C12.9787 4.4862 13.1641 4.32108 13.408 4.33886C12.8847 5.19497 12.0311 5.79703 11.0505 6.00788C11.2868 5.39565 11.9244 5.06541 12.4401 4.70722C12.5544 4.63609 12.6942 4.61068 12.7627 4.48112L12.7551 4.48875L12.7526 4.4862Z" fill="white"/>
<path d="M17.8816 2.11864C18.6437 1.46069 19.6243 1.10758 20.6328 1.13044C19.8732 1.79347 18.8901 2.14658 17.8816 2.11864Z" fill="white"/>
<path d="M4.44565 12.8643C4.55997 12.811 4.56759 12.6891 4.62094 12.5925C4.92832 12.0336 5.33224 11.5383 5.81745 11.1242C5.8708 11.0708 5.9216 11.0099 6.00036 11.02C5.79205 12.0032 5.1976 12.8593 4.34912 13.3953C4.34912 13.2022 4.48122 13.0447 4.45328 12.8542L4.44565 12.8618V12.8643Z" fill="white"/>
<path d="M55.0165 17.1372C54.3103 16.4666 53.8606 15.5698 53.7412 14.6045C54.4805 15.2497 54.9377 16.1592 55.0165 17.1372Z" fill="white"/>
<path d="M38.8625 1.69946C39.8126 1.77313 40.7119 2.16435 41.4131 2.8096C40.4655 2.72323 39.5713 2.33455 38.8625 1.69946Z" fill="white"/>
<path d="M2.85543 41.456C2.18224 40.7778 1.76816 39.8835 1.68433 38.9309C2.37276 39.599 2.78938 40.4983 2.85543 41.456Z" fill="white"/>
<path d="M3.22121 14.988C3.09419 15.9102 2.68265 16.7688 2.04248 17.442C2.1568 16.5173 2.57088 15.6536 3.22121 14.988Z" fill="white"/>
<path d="M8.44678 49.3363C9.26985 49.697 9.95829 50.3093 10.413 51.0841C9.58232 50.7335 8.89134 50.1187 8.44678 49.3363Z" fill="white"/>
<path d="M17.4523 2.0144C16.7613 2.63679 15.9128 3.05849 14.9983 3.2287C15.6588 2.56058 16.5225 2.1338 17.4523 2.0144Z" fill="white"/>
<path d="M51.1553 10.4891C50.3551 9.9607 49.6921 9.25194 49.217 8.4187C50.0884 8.85564 50.7768 9.58981 51.1553 10.4891Z" fill="white"/>
<path d="M7.00387 47.7816C6.18079 47.3193 5.56095 46.5699 5.2561 45.6757C6.01059 46.2168 6.61012 46.9408 7.00387 47.7816Z" fill="white"/>
<path d="M45.7646 5.31689C46.5877 5.64968 47.2965 6.20856 47.8096 6.93256C46.9612 6.64804 46.2372 6.07646 45.7646 5.31689Z" fill="white"/>
<path d="M8.93457 7.43051C9.43756 6.68618 10.1235 6.08666 10.9262 5.68274C10.4181 6.42198 9.73478 7.02151 8.93457 7.43051Z" fill="white"/>
<path d="M53.81 14.2437C53.1673 13.6518 52.6872 12.9049 52.4128 12.0768C53.1089 12.6204 53.6017 13.3851 53.81 14.2437Z" fill="white"/>
<path d="M5.73877 10.926C6.14015 10.0801 6.75745 9.35354 7.52972 8.82007C7.3392 9.24939 7.06484 9.63806 6.72697 9.96323C6.47293 10.3519 6.13507 10.6796 5.73877 10.9235V10.926Z" fill="white"/>
<path d="M44.0167 4.06706C43.1835 3.81811 42.4214 3.37862 41.7888 2.78418C42.6348 3.00265 43.4045 3.44721 44.0167 4.06706Z" fill="white"/>
<path d="M4.0519 44.0676C3.45237 43.4706 3.02813 42.7212 2.81982 41.9006C3.41173 42.5052 3.83597 43.2496 4.0519 44.0676Z" fill="white"/>
<path d="M4.45323 12.8567C4.0925 13.4969 3.67588 14.1015 3.20337 14.6654C3.43708 13.85 3.87656 13.1057 4.47863 12.5087C4.53198 12.6408 4.4075 12.7449 4.47863 12.8669L4.45323 12.8592V12.8567Z" fill="white"/>
<path d="M12.7602 4.47864H12.5671C13.1336 3.86642 13.8551 3.41677 14.6553 3.17798C14.5232 3.37359 14.3479 3.53617 14.1396 3.65049L12.7424 4.52437L12.7602 4.48118V4.47864Z" fill="white"/>
<path d="M19.4263 16.9619C20.6507 16.9518 21.6516 17.9374 21.6618 19.1644C21.6668 19.675 21.4941 20.1729 21.174 20.5692C19.9775 22.2103 17.0688 21.7302 16.9723 19.5302C16.8351 18.255 17.7572 17.1093 19.0325 16.9721C19.1621 16.9568 19.2942 16.9543 19.4263 16.9619Z" fill="white"/>
<path d="M19.3398 21.593C20.6138 21.593 21.6465 20.5603 21.6465 19.2864C21.6465 18.0125 20.6138 16.9797 19.3398 16.9797C18.0659 16.9797 17.0332 18.0125 17.0332 19.2864C17.0332 20.5603 18.0659 21.593 19.3398 21.593Z" fill="white"/>
</g>
<defs>
<clipPath id="clip0_7_507">
<rect width="200" height="52.5423" fill="white"/>
</clipPath>
</defs>
</svg>
