<svg width="94" height="61" viewBox="0 0 94 61" fill="none" xmlns="http://www.w3.org/2000/svg">
<path d="M0 1.99889C0 1.06105 0.671573 0.300781 1.5 0.300781C2.32843 0.300781 3 1.06105 3 1.99889V58.6027C3 59.5405 2.32843 60.3008 1.5 60.3008C0.671573 60.3008 0 59.5405 0 58.6027V1.99889Z" fill="#FFD990"/>
<path d="M7 1.99889C7 1.06105 7.67157 0.300781 8.5 0.300781C9.32843 0.300781 10 1.06105 10 1.99889V58.6027C10 59.5405 9.32843 60.3008 8.5 60.3008C7.67157 60.3008 7 59.5405 7 58.6027V1.99889Z" fill="#FFD990"/>
<path d="M14 2.56493C14 1.31447 14.8954 0.300781 16 0.300781H18C19.1046 0.300781 20 1.31448 20 2.56493V58.0366C20 59.2871 19.1046 60.3008 18 60.3008H16C14.8954 60.3008 14 59.2871 14 58.0366V2.56493Z" fill="#FFD990"/>
<path d="M24 1.99889C24 1.06105 24.6716 0.300781 25.5 0.300781C26.3284 0.300781 27 1.06105 27 1.99889V58.6027C27 59.5405 26.3284 60.3008 25.5 60.3008C24.6716 60.3008 24 59.5405 24 58.6027V1.99889Z" fill="#FFD990"/>
<path d="M30 1.99889C30 1.06105 30.6716 0.300781 31.5 0.300781C32.3284 0.300781 33 1.06105 33 1.99889V58.6027C33 59.5405 32.3284 60.3008 31.5 60.3008C30.6716 60.3008 30 59.5405 30 58.6027V1.99889Z" fill="#FFD990"/>
<path d="M38 2.56493C38 1.31447 38.8954 0.300781 40 0.300781C41.1046 0.300781 42 1.31448 42 2.56493V58.0366C42 59.2871 41.1046 60.3008 40 60.3008C38.8954 60.3008 38 59.2871 38 58.0366V2.56493Z" fill="#FFD990"/>
<path d="M44 1.43286C44 0.807628 44.4477 0.300781 45 0.300781C45.5523 0.300781 46 0.807629 46 1.43286V59.1687C46 59.7939 45.5523 60.3008 45 60.3008C44.4477 60.3008 44 59.7939 44 59.1687V1.43286Z" fill="#FFD990"/>
<path d="M48 1.43286C48 0.807628 48.4477 0.300781 49 0.300781C49.5523 0.300781 50 0.807629 50 1.43286V59.1687C50 59.7939 49.5523 60.3008 49 60.3008C48.4477 60.3008 48 59.7939 48 59.1687V1.43286Z" fill="#FFD990"/>
<path d="M53 2.56493C53 1.31447 53.8954 0.300781 55 0.300781H57C58.1046 0.300781 59 1.31448 59 2.56493V58.0366C59 59.2871 58.1046 60.3008 57 60.3008H55C53.8954 60.3008 53 59.2871 53 58.0366V2.56493Z" fill="#FFD990"/>
<path d="M63 1.99889C63 1.06105 63.6716 0.300781 64.5 0.300781C65.3284 0.300781 66 1.06105 66 1.99889V58.6027C66 59.5405 65.3284 60.3008 64.5 60.3008C63.6716 60.3008 63 59.5405 63 58.6027V1.99889Z" fill="#FFD990"/>
<path d="M72 1.99889C72 1.06105 72.6716 0.300781 73.5 0.300781C74.3284 0.300781 75 1.06105 75 1.99889V58.6027C75 59.5405 74.3284 60.3008 73.5 60.3008C72.6716 60.3008 72 59.5405 72 58.6027V1.99889Z" fill="#FFD990"/>
<path d="M77 2.56493C77 1.31447 77.8954 0.300781 79 0.300781H81C82.1046 0.300781 83 1.31448 83 2.56493V58.0366C83 59.2871 82.1046 60.3008 81 60.3008H79C77.8954 60.3008 77 59.2871 77 58.0366V2.56493Z" fill="#FFD990"/>
<path d="M87 1.99889C87 1.06105 87.6716 0.300781 88.5 0.300781C89.3284 0.300781 90 1.06105 90 1.99889V58.6027C90 59.5405 89.3284 60.3008 88.5 60.3008C87.6716 60.3008 87 59.5405 87 58.6027V1.99889Z" fill="#FFD990"/>
<path d="M91 1.99889C91 1.06105 91.6716 0.300781 92.5 0.300781C93.3284 0.300781 94 1.06105 94 1.99889V58.6027C94 59.5405 93.3284 60.3008 92.5 60.3008C91.6716 60.3008 91 59.5405 91 58.6027V1.99889Z" fill="#FFD990"/>
</svg>
