<svg width="38" height="38" viewBox="0 0 38 38" fill="none" xmlns="http://www.w3.org/2000/svg">
<path d="M11.4 30.4C9.31 30.4 7.619 32.11 7.619 34.2C7.619 36.29 9.31 38 11.4 38C13.49 38 15.2 36.29 15.2 34.2C15.2 32.11 13.49 30.4 11.4 30.4ZM0 0V3.8H3.8L10.64 18.221L8.075 22.876C7.771 23.408 7.6 24.035 7.6 24.7C7.6 26.79 9.31 28.5 11.4 28.5H34.2V24.7H12.198C11.932 24.7 11.723 24.491 11.723 24.225L11.78 23.997L13.49 20.9H27.645C29.07 20.9 30.324 20.121 30.97 18.943L37.772 6.612C37.924 6.346 38 6.023 38 5.7C38 4.655 37.145 3.8 36.1 3.8H7.999L6.213 0H0ZM30.4 30.4C28.31 30.4 26.619 32.11 26.619 34.2C26.619 36.29 28.31 38 30.4 38C32.49 38 34.2 36.29 34.2 34.2C34.2 32.11 32.49 30.4 30.4 30.4Z" fill="white"/>
</svg>
