<svg width="72" height="70" viewBox="0 0 72 70" fill="none" xmlns="http://www.w3.org/2000/svg">
<g clip-path="url(#clip0_659_54832)">
<path d="M28.1456 29.9572C31.7577 39.8829 25.1239 54.051 22.3423 55.0615C19.2005 56.2022 5.59272 50.0787 1.76053 39.5627C-0.890986 32.2785 2.86116 24.2239 10.1453 21.5724C17.4295 18.9209 25.4841 22.683 28.1356 29.9572H28.1456Z" fill="#48BDF7"/>
<path d="M23.6728 30.2279C26.3744 37.6521 23.6928 45.5066 18.6599 47.3377C14.3675 48.8986 6.08276 45.0764 3.25114 37.3019C1.29002 31.9188 4.07161 25.9654 9.45469 24.0043C14.8378 22.0432 21.3615 23.8743 23.6728 30.2279Z" fill="#48BDF7"/>
<path d="M21.792 55.1914C21.792 55.1914 21.3317 56.5822 21.3517 57.3927C21.3717 58.2031 21.9621 57.953 22.3523 57.5428C22.7425 57.1225 22.8726 57.6228 23.2928 57.4427C23.7131 57.2626 23.583 56.6022 24.1833 56.7623C24.7837 56.9224 25.324 56.7023 25.0238 56.242C24.5235 55.4616 22.5124 54.6211 22.5124 54.6211L21.782 55.1914H21.792Z" fill="#48BDF7"/>
<path d="M7.14338 28.0262C8.10393 28.3364 8.38409 30.1374 7.77374 32.0585C7.15339 33.9696 5.87266 35.2703 4.91211 34.9602C3.95156 34.65 3.6714 32.849 4.28175 30.9279C4.9021 29.0168 6.18283 27.716 7.14338 28.0262Z" fill="white"/>
<path d="M5.6728 36.7916C6.25313 36.4213 7.32374 37.0717 8.05416 38.2224C8.78457 39.383 8.90464 40.6238 8.31431 40.984C7.73397 41.3542 6.66336 40.7138 5.93295 39.5531C5.20253 38.3925 5.08246 37.1518 5.6728 36.7916Z" fill="white"/>
<path d="M21.612 55.4312C21.5319 55.4312 21.4519 55.3712 21.4419 55.2811C21.4319 55.1911 21.5019 55.101 21.592 55.091C22.1223 55.031 22.6426 54.8409 23.0828 54.5507C23.1629 54.5007 23.2629 54.5207 23.3129 54.6007C23.363 54.6808 23.343 54.7808 23.2629 54.8309C22.7726 55.1511 22.2023 55.3612 21.622 55.4312C21.622 55.4312 21.612 55.4312 21.602 55.4312H21.612Z" fill="white"/>
<path d="M28.1354 69.1596C28.1354 69.1596 28.0954 69.1596 28.0754 69.1496C27.9853 69.1196 27.9453 69.0195 27.9753 68.9294C28.5056 67.4886 27.8052 66.2379 25.774 65.0072C24.5233 64.2468 24.9036 63.0761 25.2337 62.0355C25.4238 61.4552 25.614 60.8648 25.5339 60.3645C25.4639 59.9143 25.2237 59.5941 24.9336 59.394C24.8335 59.8142 24.6734 60.1744 24.4933 60.4246C24.1531 60.9049 23.6228 60.9049 23.2726 60.7047C22.8824 60.4746 22.7323 60.0344 22.9124 59.6241C23.1626 59.0538 23.7229 58.7436 24.3732 58.8237C24.4733 58.8337 24.5734 58.8537 24.6734 58.8937C24.7535 58.2233 24.6534 57.4729 24.2632 56.8926C23.4627 55.7119 22.3621 55.1816 22.3521 55.1716C22.272 55.1316 22.232 55.0315 22.272 54.9414C22.3121 54.8614 22.4121 54.8214 22.4922 54.8614C22.5422 54.8814 23.6929 55.4317 24.5433 56.6924C25.0136 57.3828 25.1037 58.2633 24.9936 59.0238C25.4038 59.2639 25.754 59.6842 25.8641 60.2945C25.9642 60.8748 25.754 61.5052 25.5539 62.1256C25.2137 63.1762 24.9236 64.0767 25.9441 64.697C28.1154 66.0078 28.8858 67.4286 28.2955 69.0195C28.2755 69.0895 28.2054 69.1296 28.1354 69.1296V69.1596ZM24.1831 59.1639C23.8229 59.1639 23.4227 59.324 23.2226 59.7742C23.0825 60.0844 23.2526 60.3145 23.4427 60.4246C23.6728 60.5547 24.003 60.5446 24.2232 60.2445C24.3933 60.0043 24.5433 59.6541 24.6234 59.2439C24.5233 59.2039 24.4333 59.1839 24.3332 59.1739C24.2832 59.1739 24.2332 59.1739 24.1831 59.1739V59.1639Z" fill="white"/>
<path d="M36.3298 69.9994C36.3298 69.9994 36.2297 69.9794 36.1997 69.9394C36.1397 69.8693 36.1497 69.7593 36.2297 69.6992C36.81 69.239 37.4904 68.2184 37.6505 66.7275C37.8006 65.3267 37.5204 63.1055 35.3292 60.454C33.228 57.9025 33.4081 56.0414 33.8383 55.0008C32.5076 52.3293 33.7083 47.1764 33.7683 46.9462C33.7883 46.8562 33.8784 46.7962 33.9684 46.8262C34.0585 46.8462 34.1185 46.9362 34.0985 47.0263C34.0885 47.0763 32.9478 51.9791 34.0385 54.6106C34.7689 53.3399 36.1497 52.7996 37.0902 52.9196C37.7506 53.0097 38.2509 53.3899 38.471 53.9602C38.7111 54.5906 38.561 55.341 38.1008 55.8713C37.7806 56.2415 37.0402 56.8019 35.6494 56.5017C34.989 56.3516 34.4587 55.9814 34.0685 55.3911C33.7583 56.3816 33.7783 58.0226 35.5993 60.2438C37.8606 62.9954 38.1508 65.3067 37.9907 66.7676C37.8206 68.3585 37.0802 69.4691 36.4398 69.9694C36.4098 69.9894 36.3698 70.0094 36.3398 70.0094L36.3298 69.9994ZM34.2186 54.9808C34.2186 54.9808 34.2686 55.0809 34.2986 55.1209C34.6488 55.6812 35.1191 56.0214 35.7094 56.1615C36.9301 56.4317 37.5605 55.9514 37.8306 55.6412C38.2108 55.201 38.3309 54.5906 38.1408 54.0703C37.9707 53.61 37.5705 53.3199 37.0302 53.2398C36.1897 53.1298 34.949 53.6301 34.2986 54.8007C34.2686 54.8508 34.2386 54.9108 34.2086 54.9808H34.2186Z" fill="white"/>
<path d="M51.9189 18.2104C51.9189 31.9182 37.5506 46.2464 33.7085 46.2464C29.366 46.2464 15.498 32.7387 15.498 18.2104C15.498 8.15466 23.6527 0 33.7085 0C43.7642 0 51.9189 8.15466 51.9189 18.2104Z" fill="#FF82A8"/>
<path d="M46.3558 16.5503C46.3558 26.8061 39.602 35.1909 32.648 35.1909C26.7146 35.1909 18.3198 26.8562 18.3198 16.12C18.3198 8.68579 24.3433 2.65234 31.7875 2.65234C39.2318 2.65234 46.3659 7.77527 46.3659 16.5503H46.3558Z" fill="#FF82A8"/>
<path d="M32.9682 46.1556C32.9682 46.1556 31.7875 47.6465 31.4573 48.637C31.1272 49.6276 31.9476 49.5976 32.608 49.2574C33.2684 48.9272 33.1983 49.5876 33.7987 49.5576C34.389 49.5275 34.5291 48.667 35.1895 49.1273C35.8499 49.5876 36.6003 49.5576 36.4502 48.8672C36.19 47.6965 34.1089 45.7754 34.1089 45.7754L32.9682 46.1556Z" fill="#FF82A8"/>
<path d="M27.1747 6.53395C28.2153 7.33441 27.755 9.66574 26.1541 11.7269C24.5532 13.7881 22.4119 14.7987 21.3814 13.9982C20.3408 13.1878 20.801 10.8664 22.4019 8.80525C24.0029 6.74407 26.1441 5.73349 27.1747 6.53395Z" fill="white"/>
<path d="M21.4914 16.5697C22.3619 16.3796 23.3825 17.6404 23.7527 19.3714C24.1229 21.1123 23.7227 22.6732 22.8522 22.8533C21.9817 23.0435 20.9611 21.7827 20.5909 20.0517C20.2207 18.3107 20.6209 16.7499 21.5014 16.5597L21.4914 16.5697Z" fill="white"/>
<path d="M33.7085 46.4763C33.3283 46.4763 32.958 46.4363 32.5878 46.3463C32.4978 46.3262 32.4378 46.2362 32.4678 46.1461C32.4878 46.0561 32.5778 45.9961 32.6679 46.0161C33.3483 46.1762 34.0687 46.1762 34.7491 46.0161C34.8391 45.9961 34.9292 46.0461 34.9492 46.1461C34.9692 46.2362 34.9192 46.3262 34.8291 46.3463C34.4589 46.4363 34.0887 46.4763 33.7085 46.4763Z" fill="white"/>
<path d="M70.0595 38.5712C66.1072 48.3668 51.709 54.4703 48.9674 53.3597C45.8657 52.109 39.8422 38.4612 44.0246 28.0752C46.9263 20.8911 55.1009 17.4091 62.285 20.3008C69.4792 23.2024 72.9511 31.3771 70.0495 38.5712H70.0595Z" fill="#FFD990"/>
<path d="M66.5476 35.7791C63.5959 43.1033 56.3518 47.1556 51.379 45.1545C47.1365 43.4435 43.5345 35.0687 46.6362 27.3944C48.7775 22.0813 54.8209 19.5098 60.144 21.6511C65.457 23.7923 69.0891 29.5156 66.5576 35.7892L66.5476 35.7791Z" fill="#FFD990"/>
<path d="M48.4573 53.0898C48.4573 53.0898 47.1865 53.8203 46.6562 54.4306C46.1359 55.041 46.7363 55.2611 47.2966 55.2111C47.8669 55.161 47.6268 55.6213 48.067 55.7714C48.5073 55.9215 48.8475 55.3411 49.1877 55.8614C49.5279 56.3817 50.0682 56.5818 50.1582 56.0315C50.3083 55.121 49.3778 53.1499 49.3778 53.1499L48.4573 53.0898Z" fill="#FFD990"/>
<path d="M55.7313 23.0926C56.2416 23.9631 55.241 25.494 53.5 26.5046C51.759 27.5152 49.938 27.6252 49.4277 26.7547C48.9174 25.8842 49.9179 24.3534 51.6589 23.3428C53.3999 22.3322 55.221 22.2222 55.7313 23.0926Z" fill="white"/>
<path d="M48.7775 28.625C49.4579 28.7451 49.8181 29.9357 49.588 31.2865C49.3578 32.6373 48.6174 33.6379 47.937 33.5178C47.2566 33.3977 46.8964 32.2171 47.1266 30.8663C47.3567 29.5155 48.0971 28.5149 48.7775 28.635V28.625Z" fill="white"/>
<path d="M44.0845 69.8496C44.0845 69.8496 44.0345 69.8496 44.0045 69.8295C43.9244 69.7895 43.8944 69.6795 43.9344 69.5994C45.2652 67.078 44.985 65.4971 44.6649 64.7567C44.1446 64.9267 43.6043 64.8167 43.3041 64.5665C43.074 64.3764 43.0039 64.1063 43.104 63.8461C43.194 63.626 43.3741 63.4859 43.6043 63.4559C43.9845 63.4159 44.4047 63.686 44.7349 64.1563C44.7649 64.1963 44.7949 64.2464 44.835 64.3064C44.855 64.2964 44.875 64.2864 44.885 64.2764C45.3152 64.0062 45.9656 63.2358 45.4253 61.1646C45.2652 60.5543 45.3853 59.9739 45.7455 59.5137C45.3753 59.1735 45.0951 58.6632 45.0051 57.9728C44.6649 55.3613 48.8673 53.3301 49.0474 53.2501C49.1274 53.2101 49.2275 53.2501 49.2775 53.3301C49.3175 53.4102 49.2775 53.5202 49.1975 53.5603C49.1574 53.5803 45.0351 55.5714 45.3453 57.9328C45.4253 58.5731 45.6754 59.0034 45.9756 59.2735C45.9956 59.2535 46.0256 59.2335 46.0457 59.2135C46.636 58.7032 47.5365 58.4731 48.0468 58.6932C48.2669 58.7932 48.387 58.9633 48.397 59.1735C48.417 59.6337 47.9668 59.9939 47.3064 60.044C46.8761 60.084 46.4059 59.9839 46.0056 59.7138C45.7655 60.0239 45.5954 60.4642 45.7455 61.0745C46.3358 63.3458 45.5654 64.2263 45.0551 64.5565C45.0251 64.5765 44.9951 64.5866 44.975 64.6066C45.3152 65.427 45.6254 67.108 44.2346 69.7395C44.2046 69.7995 44.1446 69.8295 44.0845 69.8295V69.8496ZM43.6743 63.7961C43.6743 63.7961 43.6543 63.7961 43.6343 63.7961C43.5342 63.8061 43.4642 63.8661 43.4141 63.9762C43.3941 64.0262 43.3341 64.1663 43.5142 64.3164C43.7243 64.4865 44.1145 64.5565 44.5048 64.4565C44.4848 64.4165 44.4647 64.3864 44.4447 64.3664C44.1746 63.9762 43.8744 63.8061 43.6643 63.8061L43.6743 63.7961ZM46.2458 59.4936C46.606 59.7038 46.9862 59.7538 47.2764 59.7338C47.7366 59.6938 48.0668 59.4736 48.0568 59.2135C48.0568 59.1635 48.0368 59.0834 47.9067 59.0234C47.5565 58.8733 46.7961 59.0234 46.2558 59.4836C46.2558 59.4836 46.2558 59.4836 46.2458 59.4936Z" fill="white"/>
<path d="M49.8278 53.8107H49.8077C49.2274 53.7207 48.6671 53.5005 48.1868 53.1604C48.1068 53.1103 48.0968 53.0003 48.1468 52.9202C48.1968 52.8402 48.3069 52.8302 48.3869 52.8802C48.8172 53.1904 49.3275 53.4005 49.8578 53.4705C49.9478 53.4805 50.0179 53.5706 49.9978 53.6606C49.9878 53.7407 49.9178 53.8007 49.8278 53.8007V53.8107Z" fill="white"/>
</g>
<defs>
<clipPath id="clip0_659_54832">
<rect width="70.1601" height="70" fill="white" transform="translate(0.919922)"/>
</clipPath>
</defs>
</svg>
