<svg width="52" height="52" viewBox="0 0 52 52" fill="none" xmlns="http://www.w3.org/2000/svg">
<path d="M49.6294 25.9993C49.6294 12.7955 38.9256 2.0918 25.7219 2.0918C12.5182 2.0918 1.81445 12.7955 1.81445 25.9993C1.81445 39.2029 12.5182 49.9068 25.7219 49.9068" stroke="#FF82A8" stroke-width="3.58612" stroke-linecap="round" stroke-linejoin="round"/>
<path d="M28.1128 2.20898C28.1128 2.20898 35.285 11.6539 35.285 25.9983" stroke="#FF82A8" stroke-width="3.58612" stroke-linecap="round" stroke-linejoin="round"/>
<path d="M23.3314 49.788C23.3314 49.788 16.1592 40.3428 16.1592 25.9983C16.1592 11.6539 23.3314 2.20898 23.3314 2.20898" stroke="#FF82A8" stroke-width="3.58612" stroke-linecap="round" stroke-linejoin="round"/>
<path d="M3.31982 34.3672H25.722" stroke="#FF82A8" stroke-width="3.58612" stroke-linecap="round" stroke-linejoin="round"/>
<path d="M3.31982 17.6309H48.1243" stroke="#FF82A8" stroke-width="3.58612" stroke-linecap="round" stroke-linejoin="round"/>
<path fill-rule="evenodd" clip-rule="evenodd" d="M49.3401 40.1468C50.5206 40.8729 50.448 42.6404 49.232 42.7783L43.0959 43.4738L40.3437 49.0019C39.7984 50.0974 38.1127 49.5611 37.8339 48.2034L34.8328 33.5816C34.5973 32.434 35.6287 31.7118 36.6263 32.3257L49.3401 40.1468Z" stroke="#48BDF7" stroke-width="3.58612"/>
</svg>
