<svg width="22" height="61" viewBox="0 0 22 61" fill="none" xmlns="http://www.w3.org/2000/svg">
<path opacity="0.9" d="M20.8312 5.77344H1.16844C0.745068 5.77344 0.401855 6.11665 0.401855 6.54002V59.4341C0.401855 59.8574 0.745068 60.2006 1.16844 60.2006H20.8312C21.2546 60.2006 21.5978 59.8574 21.5978 59.4341V6.54002C21.5978 6.11665 21.2546 5.77344 20.8312 5.77344Z" fill="#48BDF7"/>
<path d="M18.9912 19.6504H3.04637C2.623 19.6504 2.27979 19.9936 2.27979 20.417V57.3278C2.27979 57.7512 2.623 58.0944 3.04637 58.0944H18.9912C19.4146 58.0944 19.7578 57.7512 19.7578 57.3278V20.417C19.7578 19.9936 19.4146 19.6504 18.9912 19.6504Z" fill="#FF82A8"/>
<path d="M14.7528 0.503303L12.6665 0.201172L5.07475 52.625L7.16108 52.9271L14.7528 0.503303Z" fill="#FFD990"/>
</svg>
