<svg width="76" height="70" viewBox="0 0 76 70" fill="none" xmlns="http://www.w3.org/2000/svg">
<g clip-path="url(#clip0_659_54728)">
<path d="M68.6192 21.765L70.1812 14.935C70.1812 14.935 70.4862 14.6023 71.1793 13.8907C71.8725 13.179 72.6211 10.582 73.037 9.51912C73.4529 8.45627 75.8374 5.05516 75.0333 4.56533C74.0906 3.99232 72.5841 7.97568 72.3069 7.83705C71.7154 7.55978 74.9594 2.26403 73.8688 1.73723C72.769 1.21043 71.2255 6.69102 70.8096 6.53391C70.061 6.26588 73.2033 0.378637 71.9372 0.0181936C70.5878 -0.369976 69.6266 6.33058 69.0906 6.16422C68.5453 5.99786 70.366 0.489543 69.2939 0.249247C68.1109 -0.018775 67.2329 7.81856 66.281 7.94795C65.3198 8.07734 64.8392 6.33982 64.3494 5.75757C63.8595 5.18455 63.0832 4.73169 62.6858 5.10137C62.2884 5.47106 62.9168 6.27513 63.1941 6.76496C63.4714 7.25479 64.1738 9.03853 64.3032 9.65775C64.4325 10.2677 65.0148 11.9498 65.403 12.5783C65.8004 13.2067 65.3752 14.8241 65.1257 15.9332C64.8022 17.338 64.0444 20.6005 64.0444 20.6005L68.6192 21.7557V21.765Z" fill="#F4C297"/>
<g style="mix-blend-mode:multiply">
<path d="M68.6192 21.765L70.1812 14.935C70.1812 14.935 70.4862 14.6023 71.1793 13.8907C71.8725 13.179 72.6211 10.582 73.037 9.51912C73.4529 8.45627 75.8374 5.05516 75.0333 4.56533C74.0906 3.99232 72.5841 7.97568 72.3069 7.83705C71.7154 7.55978 74.9594 2.26403 73.8688 1.73723C72.769 1.21043 71.2255 6.69102 70.8096 6.53391C70.061 6.26588 73.2033 0.378637 71.9372 0.0181936C70.5878 -0.369976 69.6266 6.33058 69.0906 6.16422C68.5453 5.99786 70.366 0.489543 69.2939 0.249247C68.1109 -0.018775 67.2329 7.81856 66.281 7.94795C65.3198 8.07734 64.8392 6.33982 64.3494 5.75757C63.8595 5.18455 63.0832 4.73169 62.6858 5.10137C62.2884 5.47106 62.9168 6.27513 63.1941 6.76496C63.4714 7.25479 64.1738 9.03853 64.3032 9.65775C64.4325 10.2677 65.0148 11.9498 65.403 12.5783C65.8004 13.2067 65.3752 14.8241 65.1257 15.9332C64.8022 17.338 64.0444 20.6005 64.0444 20.6005L68.6192 21.7557V21.765Z" fill="#E8D6C5"/>
</g>
<g style="mix-blend-mode:multiply">
<path d="M67.2793 12.708C67.4826 12.403 67.612 12.0518 67.6952 11.6913C67.7784 11.3309 67.8061 10.952 67.7691 10.573C67.7321 10.1941 67.6212 9.82443 67.4271 9.49171C67.2331 9.16823 66.9558 8.89097 66.6323 8.72461C66.8449 9.02036 67.0113 9.32535 67.1314 9.63958C67.2515 9.95382 67.3162 10.2773 67.3532 10.6192C67.4271 11.2939 67.3625 11.9778 67.2885 12.6987L67.2793 12.708Z" fill="#E8D6C5"/>
</g>
<g style="mix-blend-mode:multiply">
<path d="M72.1682 9.41806C71.9187 9.04837 71.5952 8.74338 71.2532 8.47536C70.902 8.1981 70.5323 7.9578 70.1349 7.75447C69.7468 7.55115 69.3309 7.38479 68.9057 7.2554C68.4806 7.12601 68.0554 7.03359 67.6118 7.00586C68.0185 7.16298 68.4251 7.32009 68.8133 7.48645C69.2107 7.66205 69.5989 7.83765 69.9778 8.03174C70.3567 8.22582 70.7264 8.43839 71.0961 8.66945C71.4566 8.9005 71.817 9.14079 72.1589 9.41806H72.1682Z" fill="#E8D6C5"/>
</g>
<g style="mix-blend-mode:multiply">
<path d="M71.3269 10.6918C71.2438 10.3683 71.0959 10.0633 70.9203 9.77683C70.7447 9.49032 70.5321 9.2223 70.3011 8.982C70.0608 8.74171 69.802 8.52914 69.5062 8.35354C69.2197 8.17794 68.9055 8.04855 68.582 7.97461C68.8593 8.16869 69.1181 8.35354 69.3676 8.55686C69.6172 8.76019 69.8574 8.97276 70.0793 9.20381C70.3103 9.43487 70.5136 9.67516 70.7262 9.9247C70.9295 10.1742 71.1329 10.433 71.3269 10.701V10.6918Z" fill="#E8D6C5"/>
</g>
<path d="M34.2016 35.3135L37.8615 34.8145L41.5121 35.3135C41.5121 35.3135 41.2441 38.613 41.9003 40.1472C41.9003 40.1472 39.9225 42.4392 37.8523 42.2913C35.782 42.4485 33.8042 40.1472 33.8042 40.1472C34.4604 38.613 34.1924 35.3135 34.1924 35.3135H34.2016Z" fill="#EDB380"/>
<path d="M29.9869 27.218H30.144C30.0793 26.6819 30.0146 26.1551 29.9499 25.6468C29.6172 23.0498 28.8501 15.4805 37.8982 15.4805C46.9462 15.4805 46.1791 23.059 45.8464 25.6468C45.7817 26.1459 45.717 26.6727 45.6523 27.218H45.8095C47.1865 26.2014 47.3067 28.8631 46.7244 29.7688C46.2438 30.5174 46.2346 30.6006 45.9481 31.4324C45.7355 32.0424 45.3843 32.1256 45.0886 32.0609C45.0516 32.4213 45.0146 32.7355 44.9961 32.9851C44.8668 34.3807 41.5119 37.181 40.7448 38.059C40.0331 38.8816 38.8409 38.5581 38.462 38.5396C38.0738 38.5211 37.8889 38.5119 37.8889 38.5119C37.8889 38.5119 37.7041 38.5211 37.3252 38.5396C36.9462 38.5581 35.754 38.8816 35.0424 38.059C34.2753 37.181 30.9204 34.3807 30.8002 32.9851C30.7725 32.7355 30.7448 32.4213 30.7078 32.0609C30.412 32.1256 30.0608 32.0424 29.8483 31.4324C29.5618 30.6006 29.5525 30.5174 29.0812 29.7688C28.5082 28.8631 28.6191 26.2014 29.9961 27.218H29.9869Z" fill="#F4C297"/>
<path d="M30.2829 26.3579L30.1351 27.2174C29.9225 26.1084 29.7007 25.0086 29.5713 23.8995C29.5713 23.8995 29.5713 23.8903 29.5713 23.881C28.7395 18.003 31.4382 13.5391 31.4382 13.5391C31.4382 13.5391 31.0778 14.5557 38.7857 14.5557C38.7857 14.5557 38.7857 14.5557 38.795 14.5557C38.9521 14.5557 39.1277 14.5557 39.3125 14.5649C46.697 14.8884 46.2903 21.9124 46.2903 21.9124H46.2811C46.3365 23.6777 45.9761 25.4429 45.6341 27.2082L45.477 26.3487C45.477 26.3487 45.3939 25.4984 45.0611 24.454C45.0426 24.3986 45.0242 24.3431 45.0057 24.2969C44.904 24.0104 44.7839 23.7054 44.6452 23.4097C42.6397 19.4171 37.8892 20.7202 37.8892 20.7202C37.8892 20.7202 33.1388 19.4171 31.1332 23.4189C30.9946 23.7054 30.8744 24.0012 30.7728 24.2784C30.7543 24.3431 30.7266 24.3986 30.7081 24.4633L30.2829 26.3487V26.3579Z" fill="#4F515A"/>
<path d="M33.8133 40.1465C33.8133 40.1465 32.3438 41.5513 29.0259 41.9487L37.8891 56.3295V42.2907L33.8133 40.1465Z" fill="#EDB380"/>
<path d="M41.9649 40.1465C41.9649 40.1465 43.4344 41.5513 46.7524 41.9487L37.8892 56.3295V42.2907L41.9649 40.1465Z" fill="#F4C297"/>
<path d="M41.9649 40.1465C41.9649 40.1465 43.4344 41.5513 46.7524 41.9487L37.8892 56.3295V42.2907L41.9649 40.1465Z" fill="#EDB380"/>
<path d="M71.0036 20.0727L62.1773 18.252C61.7152 19.7954 60.2457 29.8508 58.5729 32.947C56.9093 36.0431 51.8169 41.0893 50.7448 41.3758C49.6727 41.6623 44.4509 41.5237 44.4509 41.5237L37.889 43.1965L31.3271 41.5237C30.6893 41.6069 26.1792 41.5422 25.7263 41.7917C24.7559 42.3185 24.7282 53.2242 24.7282 55.4146C24.7282 56.3388 24.645 57.7806 24.5063 59.4812H37.889V65.4054H51.1792C51.1792 65.4054 51.0498 56.1263 51.0498 55.4146C51.0498 53.2242 63.6283 41.4959 64.8298 37.9655C65.9019 34.8139 70.9943 20.0727 70.9943 20.0727H71.0036Z" fill="#48BDF7"/>
<path opacity="0.9" d="M62.7356 47.3438H57.9944C57.8923 47.3438 57.8096 47.4265 57.8096 47.5286V60.2828C57.8096 60.3848 57.8923 60.4676 57.9944 60.4676H62.7356C62.8377 60.4676 62.9205 60.3848 62.9205 60.2828V47.5286C62.9205 47.4265 62.8377 47.3438 62.7356 47.3438Z" fill="#FF5589"/>
<path d="M62.2918 50.6895H58.4471C58.345 50.6895 58.2622 50.7722 58.2622 50.8743V59.7745C58.2622 59.8766 58.345 59.9593 58.4471 59.9593H62.2918C62.3939 59.9593 62.4766 59.8766 62.4766 59.7745V50.8743C62.4766 50.7722 62.3939 50.6895 62.2918 50.6895Z" fill="#FFD990"/>
<path d="M61.2702 46.0729L60.7671 46L58.9365 58.6408L59.4396 58.7136L61.2702 46.0729Z" fill="#FF82A8"/>
<path opacity="0.9" d="M46.7356 47.3438H41.9944C41.8923 47.3438 41.8096 47.4265 41.8096 47.5286V60.2828C41.8096 60.3848 41.8923 60.4676 41.9944 60.4676H46.7356C46.8377 60.4676 46.9205 60.3848 46.9205 60.2828V47.5286C46.9205 47.4265 46.8377 47.3438 46.7356 47.3438Z" fill="#FF5589"/>
<path d="M46.2918 50.6895H42.4471C42.345 50.6895 42.2622 50.7722 42.2622 50.8743V59.7745C42.2622 59.8766 42.345 59.9593 42.4471 59.9593H46.2918C46.3939 59.9593 46.4766 59.8766 46.4766 59.7745V50.8743C46.4766 50.7722 46.3939 50.6895 46.2918 50.6895Z" fill="#FFD990"/>
<path d="M45.2702 46.0729L44.7671 46L42.9365 58.6408L43.4396 58.7136L45.2702 46.0729Z" fill="#FF82A8"/>
<path opacity="0.9" d="M71.7356 47.3438H66.9944C66.8923 47.3438 66.8096 47.4265 66.8096 47.5286V60.2828C66.8096 60.3848 66.8923 60.4676 66.9944 60.4676H71.7356C71.8377 60.4676 71.9205 60.3848 71.9205 60.2828V47.5286C71.9205 47.4265 71.8377 47.3438 71.7356 47.3438Z" fill="#FF5589"/>
<path d="M71.2918 50.6895H67.4471C67.345 50.6895 67.2622 50.7722 67.2622 50.8743V59.7745C67.2622 59.8766 67.345 59.9593 67.4471 59.9593H71.2918C71.3939 59.9593 71.4766 59.8766 71.4766 59.7745V50.8743C71.4766 50.7722 71.3939 50.6895 71.2918 50.6895Z" fill="#FFD990"/>
<path d="M70.2702 46.0729L69.7671 46L67.9365 58.6408L68.4396 58.7136L70.2702 46.0729Z" fill="#FF82A8"/>
<path opacity="0.9" d="M13.7356 47.3438H8.99441C8.89233 47.3438 8.80957 47.4265 8.80957 47.5286V60.2828C8.80957 60.3848 8.89233 60.4676 8.99441 60.4676H13.7356C13.8377 60.4676 13.9205 60.3848 13.9205 60.2828V47.5286C13.9205 47.4265 13.8377 47.3438 13.7356 47.3438Z" fill="#FF5589"/>
<path d="M13.2918 50.6895H9.44705C9.34496 50.6895 9.26221 50.7722 9.26221 50.8743V59.7745C9.26221 59.8766 9.34496 59.9593 9.44705 59.9593H13.2918C13.3939 59.9593 13.4766 59.8766 13.4766 59.7745V50.8743C13.4766 50.7722 13.3939 50.6895 13.2918 50.6895Z" fill="#FFD990"/>
<path d="M12.2702 46.0729L11.7671 46L9.93652 58.6408L10.4396 58.7136L12.2702 46.0729Z" fill="#FF82A8"/>
<path d="M28.4064 59.4814L34.5247 51.3205L28.314 46.4962L27.2697 47.7161L29.4231 41.5608C29.4231 41.5608 21.4379 41.2374 20.3288 44.6754C19.2567 47.9934 15.1347 60.0636 14.1366 63.0396C12.8981 64.8141 13.4804 67.4296 15.4767 68.9453C17.5284 70.498 20.2826 70.3224 21.632 68.5387L24.6079 64.5645V65.3963H37.8981V59.4721H28.4157L28.4064 59.4814Z" fill="#48BDF7"/>
<path d="M14.6914 31.1648C15.1628 31.858 14.636 33.0872 13.5177 33.9098C12.3901 34.7323 11.0962 34.8432 10.6249 34.1501C10.1535 33.4569 10.6803 32.2277 11.7986 31.4051C12.9262 30.5826 14.2201 30.4717 14.6914 31.1648Z" fill="#48BDF7"/>
<path d="M21.6693 28.9656C22.1406 29.6588 21.6138 30.888 20.4955 31.7105C19.3772 32.5331 18.0741 32.644 17.6027 31.9508C17.1314 31.2577 17.6489 30.0285 18.7765 29.2059C19.904 28.3834 21.1979 28.2725 21.6693 28.9656Z" fill="#48BDF7"/>
<path d="M21.5585 29.7979C21.5585 29.7979 21.5307 29.8072 21.5123 29.8164C21.3089 29.8719 21.0871 29.7517 21.0224 29.5299L18.2867 19.6963L12.0113 21.6741L14.7747 31.5077C14.8302 31.7295 14.71 31.9513 14.5067 32.016C14.2941 32.0807 14.0816 31.9513 14.0169 31.7295L11.1426 21.5077C11.0779 21.2952 11.198 21.0641 11.4014 21.0086L18.4254 18.7905C18.527 18.7628 18.6379 18.772 18.7304 18.8275C18.8228 18.883 18.8875 18.9661 18.9245 19.077L21.771 29.3081C21.8265 29.5114 21.7248 29.7147 21.54 29.7979H21.5585Z" fill="#48BDF7"/>
<path d="M19.3307 21.8598L12.2975 24.0779L12.0664 23.2923L19.0997 21.0742L19.3307 21.8598Z" fill="#48BDF7"/>
<path d="M19.5158 22.4789L12.4918 24.6971L12.2515 23.9115L19.2755 21.6934L19.5158 22.4789Z" fill="#48BDF7"/>
<path d="M18.841 20.2133L11.8077 22.4314L11.5767 21.6458L18.6007 19.4277L18.841 20.2133Z" fill="#48BDF7"/>
<path d="M10.791 11.5622C11.0868 11.9411 10.828 12.6805 10.2088 13.2073C9.58956 13.7249 8.84095 13.845 8.53596 13.4661C8.23097 13.0872 8.49899 12.3478 9.11822 11.821C9.73744 11.2942 10.4861 11.1833 10.791 11.5622Z" fill="#FFD990"/>
<path d="M14.7559 10.0011C15.0516 10.3801 14.7929 11.1194 14.1736 11.637C13.5544 12.1638 12.8058 12.2747 12.5008 11.8958C12.1958 11.5169 12.4638 10.7775 13.0831 10.2507C13.7023 9.72388 14.4509 9.61298 14.7559 9.99191V10.0011Z" fill="#FFD990"/>
<path d="M14.7282 10.4902C14.7282 10.4902 14.7097 10.4902 14.7005 10.4994C14.5803 10.5456 14.4509 10.4809 14.4047 10.3515L12.4546 4.75081L8.88717 6.14637L10.8558 11.7471C10.902 11.8673 10.8373 12.0059 10.7171 12.0521C10.597 12.0983 10.4676 12.0336 10.4214 11.9135L8.37886 6.09092C8.33265 5.97077 8.39734 5.83214 8.50825 5.78593L12.5009 4.21476C12.5563 4.18704 12.621 4.19628 12.6765 4.21476C12.7319 4.24249 12.7781 4.2887 12.7966 4.3534L14.8299 10.1852C14.8668 10.2961 14.8206 10.4255 14.719 10.4809L14.7282 10.4902Z" fill="#FFD990"/>
<path d="M12.7966 5.02761L8.79478 6.59877L8.62842 6.15515L12.6303 4.58398L12.7966 5.02761Z" fill="#FFD990"/>
<path d="M7.83338 20.9336C8.40639 21.2478 8.46185 22.3107 7.96277 23.3088C7.45445 24.307 6.58569 24.8707 6.01268 24.5565C5.43966 24.2423 5.38421 23.1794 5.89253 22.1813C6.3916 21.1739 7.26961 20.6193 7.84262 20.9336H7.83338Z" fill="#FF82A8"/>
<path d="M8.04639 21.1185L7.47337 21.673L0.994629 14.4087L1.01311 14.2146C1.02236 14.1314 1.13326 13.3735 1.93733 12.6064C2.3255 12.246 3.0279 11.9318 3.65637 11.6545C4.27559 11.3865 4.54361 10.9059 4.54361 10.9059L4.7377 10.5547L5.42162 10.9521L5.22753 11.3033C5.22753 11.3033 4.83936 12.0149 3.96136 12.4031C3.42531 12.6434 2.75064 12.9392 2.46413 13.2072C2.06672 13.5861 1.90036 13.9373 1.83566 14.1406L8.0279 21.1092L8.04639 21.1185Z" fill="#FF82A8"/>
<path d="M5.23656 11.831C5.01475 12.0991 4.64506 12.4503 4.08129 12.6998C3.59146 12.9124 2.91678 13.2081 2.66724 13.4484C2.16817 13.9198 2.09423 14.3541 2.09423 14.3726L1.98332 15.0658L1.07759 14.502L0.80957 14.2155C0.818812 14.1231 0.855781 13.2358 1.73378 12.3948C2.15892 11.9974 2.88905 11.6739 3.536 11.3874C4.05356 11.1564 4.27537 10.7774 4.28462 10.7589L4.63582 10.1582L5.82805 10.8514L5.49534 11.4706C5.49534 11.4706 5.39367 11.6462 5.2458 11.831H5.23656Z" fill="#FF82A8"/>
<path opacity="0.9" d="M23.7356 47.3438H18.9944C18.8923 47.3438 18.8096 47.4265 18.8096 47.5286V60.2828C18.8096 60.3848 18.8923 60.4676 18.9944 60.4676H23.7356C23.8377 60.4676 23.9205 60.3848 23.9205 60.2828V47.5286C23.9205 47.4265 23.8377 47.3438 23.7356 47.3438Z" fill="#FF5589"/>
<path d="M23.2918 50.6895H19.4471C19.345 50.6895 19.2622 50.7722 19.2622 50.8743V59.7745C19.2622 59.8766 19.345 59.9593 19.4471 59.9593H23.2918C23.3939 59.9593 23.4766 59.8766 23.4766 59.7745V50.8743C23.4766 50.7722 23.3939 50.6895 23.2918 50.6895Z" fill="#FFD990"/>
<path d="M22.2702 46.0729L21.7671 46L19.9365 58.6408L20.4396 58.7136L22.2702 46.0729Z" fill="#FF82A8"/>
<rect x="0.80957" y="60" width="74" height="10" fill="#D8DAE3"/>
<path d="M31.2275 5.87988H29.4014L29.3916 4.87402H30.9248C31.195 4.87402 31.4163 4.83984 31.5889 4.77148C31.7614 4.69987 31.89 4.59733 31.9746 4.46387C32.0625 4.32715 32.1064 4.16113 32.1064 3.96582C32.1064 3.74447 32.0641 3.56543 31.9795 3.42871C31.8981 3.29199 31.7695 3.19271 31.5938 3.13086C31.4212 3.06901 31.1982 3.03809 30.9248 3.03809H29.9092V9H28.4443V1.89062H30.9248C31.3382 1.89062 31.7077 1.92969 32.0332 2.00781C32.362 2.08594 32.6403 2.20475 32.8682 2.36426C33.096 2.52376 33.2702 2.72559 33.3906 2.96973C33.5111 3.21061 33.5713 3.49707 33.5713 3.8291C33.5713 4.12207 33.5046 4.39225 33.3711 4.63965C33.2409 4.88704 33.0342 5.08887 32.751 5.24512C32.471 5.40137 32.1048 5.48763 31.6523 5.50391L31.2275 5.87988ZM31.1641 9H29.001L29.5723 7.85742H31.1641C31.4212 7.85742 31.6312 7.81673 31.7939 7.73535C31.9567 7.65072 32.0771 7.53678 32.1553 7.39355C32.2334 7.25033 32.2725 7.08594 32.2725 6.90039C32.2725 6.69206 32.2367 6.51139 32.165 6.3584C32.0967 6.2054 31.986 6.08822 31.833 6.00684C31.68 5.9222 31.4782 5.87988 31.2275 5.87988H29.8164L29.8262 4.87402H31.584L31.9209 5.26953C32.3538 5.26302 32.7021 5.33952 32.9658 5.49902C33.2327 5.65527 33.4264 5.85872 33.5469 6.10938C33.6706 6.36003 33.7324 6.62858 33.7324 6.91504C33.7324 7.37077 33.6331 7.75488 33.4346 8.06738C33.236 8.37663 32.9447 8.60938 32.5605 8.76562C32.1797 8.92188 31.7142 9 31.1641 9ZM37.7217 3.10645L35.7881 9H34.2305L36.8721 1.89062H37.8633L37.7217 3.10645ZM39.3281 9L37.3896 3.10645L37.2334 1.89062H38.2344L40.8906 9H39.3281ZM39.2402 6.35352V7.50098H35.4854V6.35352H39.2402ZM41.5498 1.89062H44.2012C44.7448 1.89062 45.2119 1.97201 45.6025 2.13477C45.9964 2.29753 46.2992 2.53841 46.5107 2.85742C46.7223 3.17643 46.8281 3.56868 46.8281 4.03418C46.8281 4.41504 46.763 4.74219 46.6328 5.01562C46.5059 5.28581 46.3252 5.51204 46.0908 5.69434C45.8597 5.87337 45.5879 6.0166 45.2754 6.12402L44.8115 6.36816H42.5068L42.4971 5.22559H44.2109C44.4681 5.22559 44.6813 5.18001 44.8506 5.08887C45.0199 4.99772 45.1468 4.87077 45.2314 4.70801C45.3193 4.54525 45.3633 4.35645 45.3633 4.1416C45.3633 3.91374 45.321 3.7168 45.2363 3.55078C45.1517 3.38477 45.0231 3.25781 44.8506 3.16992C44.6781 3.08203 44.4616 3.03809 44.2012 3.03809H43.0146V9H41.5498V1.89062ZM45.5244 9L43.9033 5.83105L45.4512 5.82129L47.0918 8.93164V9H45.5244Z" fill="#FF5589"/>
</g>
<defs>
<clipPath id="clip0_659_54728">
<rect width="74.3808" height="70" fill="white" transform="translate(0.80957)"/>
</clipPath>
</defs>
</svg>
