<svg width="38" height="78" viewBox="0 0 38 78" fill="none" xmlns="http://www.w3.org/2000/svg">
<path opacity="0.9" d="M25.2488 27.041H5.7678C5.34834 27.041 5.0083 27.3563 5.0083 27.7452V76.3368C5.0083 76.7257 5.34834 77.041 5.7678 77.041H25.2488C25.6683 77.041 26.0083 76.7257 26.0083 76.3368V27.7452C26.0083 27.3563 25.6683 27.041 25.2488 27.041Z" fill="#48BDF7"/>
<path d="M23.8262 36.6582H7.88133C7.45796 36.6582 7.11475 37.0014 7.11475 37.4248V74.3356C7.11475 74.759 7.45796 75.1022 7.88133 75.1022H23.8262C24.2496 75.1022 24.5928 74.759 24.5928 74.3356V37.4248C24.5928 37.0014 24.2496 36.6582 23.8262 36.6582Z" fill="#FF82A8"/>
<path d="M20.0536 14.2963L17.9673 13.9941L9.90989 69.6334L11.9962 69.9355L20.0536 14.2963Z" fill="#FFD990"/>
<path d="M33.8863 24.5971C27.5341 19.8521 21.2364 5.99249 21.2364 5.99249C21.2364 5.99249 10.3141 13.3573 0.553457 14.4723C0.553457 14.4723 0.718463 16.482 2.20939 16.9349C3.70032 17.3878 6.55267 16.2945 6.55267 16.2945C6.55267 16.2945 6.71768 18.3043 8.63458 18.8865C10.5515 19.4688 12.9779 18.2462 12.9779 18.2462C12.9779 18.2462 13.3913 20.3314 15.4857 20.9676C17.5801 21.6037 19.2611 20.1547 19.2611 20.1547C19.2611 20.1547 20.4555 22.4771 22.3369 23.0486C24.2183 23.6201 26.7512 22.4298 26.7512 22.4298C26.7512 22.4298 27.5552 24.6336 30.111 25.41C32.6669 26.1863 33.8863 24.5971 33.8863 24.5971Z" fill="#FFD990"/>
</svg>
