<svg width="60" height="56" viewBox="0 0 60 56" fill="none" xmlns="http://www.w3.org/2000/svg">
<path d="M5.01855 19.666V47.4438C5.01855 50.5121 7.50586 52.9993 10.5741 52.9993H49.463C52.5313 52.9993 55.0186 50.5121 55.0186 47.4438V19.666" stroke="#FFD990" stroke-width="5"/>
<path d="M53.5881 3H42.5L43.8889 16.8889C43.8889 16.8889 46.6667 19.6667 50.8333 19.6667C53.825 19.6667 55.8619 18.2346 56.7731 17.4269C57.1361 17.1051 57.2689 16.6136 57.1892 16.135L55.2319 4.39267C55.0981 3.58903 54.4028 3 53.5881 3Z" stroke="#FFD990" stroke-width="5"/>
<path d="M42.5 3L43.8889 16.8889C43.8889 16.8889 41.1111 19.6667 36.9444 19.6667C32.7778 19.6667 30 16.8889 30 16.8889V3H42.5Z" stroke="#FFD990" stroke-width="5"/>
<path d="M30.0002 3V16.8889C30.0002 16.8889 27.2225 19.6667 23.0558 19.6667C18.8891 19.6667 16.1113 16.8889 16.1113 16.8889L17.5002 3H30.0002Z" stroke="#FFD990" stroke-width="5"/>
<path d="M17.5001 3H6.41195C5.59723 3 4.90192 3.58903 4.76798 4.39267L2.8109 16.1351C2.73115 16.6136 2.86401 17.1051 3.22706 17.4269C4.13795 18.2346 6.17495 19.6667 9.1667 19.6667C13.3334 19.6667 16.1112 16.8889 16.1112 16.8889L17.5001 3Z" stroke="#FFD990" stroke-width="5"/>
</svg>
