<svg width="82" height="70" viewBox="0 0 82 70" fill="none" xmlns="http://www.w3.org/2000/svg">
<g clip-path="url(#clip0_661_54791)">
<path d="M74.4626 28.8542L76.1665 21.4035C76.1665 21.4035 76.4992 21.0405 77.2554 20.2642C78.0014 19.4879 78.8282 16.6548 79.2819 15.4954C79.7356 14.336 82.3367 10.6257 81.4596 10.0914C80.4312 9.4663 78.7878 13.8117 78.4854 13.6605C77.8401 13.358 81.3789 7.57086 80.1892 7.00627C78.9895 6.44167 77.3058 12.4103 76.8521 12.2389C76.0354 11.9465 79.4533 5.5242 78.0821 5.131C76.6101 4.70755 75.5616 12.0171 74.9768 11.8356C74.382 11.6541 76.3681 5.65527 75.1986 5.38305C73.9081 5.10075 72.9503 13.6403 71.9118 13.7814C70.8633 13.9226 70.339 12.0272 69.8047 11.4021C69.2804 10.777 68.4234 10.2829 67.9899 10.6862C67.5564 11.0895 68.242 11.9667 68.5444 12.501C68.8469 13.0354 69.6131 14.9812 69.7543 15.6567C69.8954 16.3221 70.5306 18.1571 70.954 18.8427C71.3876 19.5282 70.9339 21.2926 70.6516 22.5025C70.2987 24.0349 69.472 27.5939 69.472 27.5939L74.4626 28.8542Z" fill="#F4C297"/>
<g style="mix-blend-mode:multiply">
<path d="M74.4626 28.8542L76.1665 21.4035C76.1665 21.4035 76.4992 21.0405 77.2554 20.2642C78.0014 19.4879 78.8282 16.6548 79.2819 15.4954C79.7356 14.336 82.3367 10.6257 81.4596 10.0914C80.4312 9.4663 78.7878 13.8117 78.4854 13.6605C77.8401 13.358 81.3789 7.57086 80.1892 7.00627C78.9895 6.44167 77.3058 12.4103 76.8521 12.2389C76.0354 11.9465 79.4533 5.5242 78.0821 5.131C76.6101 4.70755 75.5616 12.0171 74.9768 11.8356C74.382 11.6541 76.3681 5.65527 75.1986 5.38305C73.9081 5.10075 72.9503 13.6403 71.9118 13.7814C70.8633 13.9226 70.339 12.0272 69.8047 11.4021C69.2804 10.777 68.4234 10.2829 67.9899 10.6862C67.5564 11.0895 68.242 11.9667 68.5444 12.501C68.8469 13.0354 69.6131 14.9812 69.7543 15.6567C69.8954 16.3221 70.5306 18.1571 70.954 18.8427C71.3876 19.5282 70.9339 21.2926 70.6516 22.5025C70.2987 24.0349 69.472 27.5939 69.472 27.5939L74.4626 28.8542Z" fill="#E8D6C5"/>
</g>
<g style="mix-blend-mode:multiply">
<path d="M73.0109 18.9841C73.2327 18.6513 73.3739 18.2682 73.4646 17.875C73.5554 17.4818 73.5856 17.0685 73.5453 16.6551C73.5049 16.2518 73.384 15.8384 73.1722 15.4755C72.9605 15.1226 72.658 14.8201 72.3052 14.6387C72.5371 14.9613 72.7185 15.2839 72.8496 15.6368C72.9807 15.9796 73.0512 16.3325 73.0916 16.7055C73.1722 17.4415 73.1017 18.1876 73.021 18.974L73.0109 18.9841Z" fill="#E8D6C5"/>
</g>
<g style="mix-blend-mode:multiply">
<path d="M78.3344 15.3935C78.0622 14.9902 77.7093 14.6575 77.3363 14.355C76.9632 14.0525 76.5499 13.7904 76.1264 13.5686C75.6929 13.3468 75.2493 13.1653 74.7855 13.0242C74.3318 12.883 73.858 12.7822 73.374 12.752C73.8176 12.9233 74.2612 13.0947 74.6948 13.2762C75.1283 13.4678 75.5518 13.6593 75.9651 13.8711C76.3785 14.0828 76.7818 14.3147 77.175 14.5667C77.5682 14.8188 77.9614 15.0809 78.3344 15.3834V15.3935Z" fill="#E8D6C5"/>
</g>
<g style="mix-blend-mode:multiply">
<path d="M77.4166 16.7864C77.3258 16.4335 77.1645 16.1008 76.973 15.7883C76.7814 15.4757 76.5495 15.1833 76.2975 14.9212C76.0353 14.6591 75.753 14.4272 75.4304 14.2356C75.1179 14.0441 74.7751 13.9029 74.4121 13.8223C74.7146 14.034 74.9969 14.2356 75.2691 14.4574C75.5413 14.6792 75.8034 14.9111 76.0454 15.1632C76.2975 15.4152 76.5193 15.6774 76.7512 15.9496C76.973 16.2218 77.1948 16.5041 77.4065 16.7965L77.4166 16.7864Z" fill="#E8D6C5"/>
</g>
<path d="M7.53771 28.1784L5.83383 20.7277C5.83383 20.7277 5.49104 20.3648 4.74497 19.5884C3.99889 18.8121 3.17216 15.9791 2.71846 14.8196C2.25469 13.6602 -0.336412 9.94996 0.54073 9.41561C1.5691 8.79052 3.21249 13.1359 3.51495 12.9847C4.1602 12.6721 0.611305 6.89508 1.81107 6.33049C3.01084 5.75581 4.69455 11.7345 5.13817 11.5631C5.9649 11.2707 2.53699 4.84842 3.90815 4.45522C5.38014 4.03177 6.42868 11.3413 7.01344 11.1598C7.60828 10.9783 5.62211 4.9694 6.79163 4.70727C8.08214 4.41489 9.02986 12.9645 10.0784 13.1057C11.1269 13.2468 11.6613 11.3514 12.1856 10.7162C12.7199 10.0911 13.5769 9.59709 14.0003 10.0004C14.4339 10.4037 13.7483 11.2808 13.4559 11.8151C13.1635 12.3495 12.3872 14.2953 12.246 14.9708C12.1049 15.6363 11.4697 17.4712 11.0362 18.1568C10.6027 18.8424 11.0564 20.6067 11.3387 21.8166C11.8125 23.8431 11.7117 23.4297 12.5183 26.908L7.52762 28.1683L7.53771 28.1784Z" fill="#F4C297"/>
<g style="mix-blend-mode:multiply">
<path d="M8.99963 18.3083C8.77783 17.9756 8.63668 17.5924 8.54594 17.1992C8.4552 16.806 8.42495 16.3927 8.46528 15.9793C8.50561 15.5659 8.62659 15.1627 8.83832 14.7997C9.05004 14.4468 9.35251 14.1444 9.70538 13.9629C9.47349 14.2855 9.29201 14.6182 9.16095 14.961C9.02988 15.3038 8.9593 15.6567 8.91897 16.0297C8.83832 16.7657 8.90889 17.5219 8.98955 18.3083H8.99963Z" fill="#E8D6C5"/>
</g>
<g style="mix-blend-mode:multiply">
<path d="M3.66633 14.7196C3.93855 14.3164 4.29142 13.9836 4.66446 13.6812C5.0375 13.3787 5.45086 13.1166 5.87431 12.8948C6.30784 12.673 6.75145 12.4915 7.21523 12.3503C7.67901 12.2092 8.15286 12.1084 8.62672 12.0781C8.17303 12.2495 7.7395 12.4209 7.30597 12.6024C6.87244 12.7839 6.44899 12.9855 6.03562 13.1972C5.62226 13.409 5.21897 13.6409 4.81569 13.8929C4.42249 14.145 4.02929 14.4071 3.65625 14.7096L3.66633 14.7196Z" fill="#E8D6C5"/>
</g>
<g style="mix-blend-mode:multiply">
<path d="M4.5835 16.1005C4.67423 15.7477 4.83555 15.415 5.02711 15.1024C5.21867 14.7899 5.45056 14.4975 5.70261 14.2354C5.96474 13.9732 6.24704 13.7312 6.56967 13.5498C6.88221 13.3582 7.22501 13.2171 7.58796 13.1465C7.2855 13.3481 6.99312 13.5498 6.7209 13.7716C6.44868 13.9934 6.19663 14.2253 5.94458 14.4773C5.70261 14.7193 5.47072 14.9915 5.23883 15.2637C5.01703 15.5359 4.8053 15.8182 4.5835 16.1106V16.1005Z" fill="#E8D6C5"/>
</g>
<path d="M36.9169 43.644L40.9094 43.0996L44.8919 43.644C44.8919 43.644 44.5995 47.2434 45.3153 48.917C45.3153 48.917 43.1577 51.4173 40.8994 51.256C38.641 51.4173 36.4834 48.917 36.4834 48.917C37.1992 47.2434 36.9068 43.644 36.9068 43.644H36.9169Z" fill="#EDB380"/>
<path d="M32.3194 34.8118H32.4908C32.4202 34.227 32.3496 33.6523 32.279 33.1079C31.9161 30.2748 31.0793 22.0176 40.9496 22.0176C50.82 22.0176 49.9832 30.2849 49.6202 33.1079C49.5497 33.6523 49.4791 34.227 49.4085 34.8118H49.5799C51.0821 33.7027 51.2132 36.6064 50.578 37.5944C50.0538 38.4212 50.0437 38.5018 49.7311 39.4092C49.4993 40.0746 49.1161 40.1654 48.7935 40.0948C48.7532 40.488 48.7128 40.8308 48.6927 41.103C48.5515 42.6254 44.8917 45.6803 44.0549 46.6381C43.2786 47.5354 41.978 47.1825 41.5646 47.1623C41.1412 47.1422 40.9396 47.1321 40.9396 47.1321C40.9396 47.1321 40.7379 47.1422 40.3245 47.1623C39.9112 47.1825 38.6106 47.5354 37.8343 46.6381C36.9975 45.6803 33.3377 42.6254 33.2066 41.103C33.1763 40.8308 33.1461 40.488 33.1058 40.0948C32.7831 40.1654 32.4 40.0746 32.1681 39.4092C31.8556 38.5018 31.8455 38.4212 31.3212 37.5944C30.6961 36.6064 30.8171 33.7027 32.3194 34.8118Z" fill="#F4C297"/>
<path d="M32.6521 33.8745L32.4908 34.8121C32.2589 33.6023 32.017 32.4025 31.8758 31.1927C31.8758 31.1927 31.8758 31.1826 31.8758 31.1725C30.9684 24.7704 33.9124 19.8906 33.9124 19.8906C33.9124 19.8906 33.5192 20.9997 41.9277 20.9997C41.9277 20.9997 41.9277 20.9997 41.9377 20.9997C42.1091 20.9997 42.3007 20.9997 42.5023 21.0198C50.5579 21.3727 50.1143 29.0351 50.1143 29.0351H50.1042C50.1647 30.9608 49.7614 32.8864 49.3985 34.8121L49.2271 33.8745C49.2271 33.8745 49.1364 32.9469 48.7734 31.8077C48.7532 31.7472 48.7331 31.6867 48.7129 31.6262C48.602 31.3136 48.4709 30.9809 48.3197 30.6583C46.1319 26.3028 40.9497 27.7244 40.9497 27.7244C40.9497 27.7244 35.7675 26.3028 33.5797 30.6684C33.4284 30.9809 33.2974 31.3036 33.1865 31.606C33.1663 31.6766 33.1361 31.7371 33.1159 31.8077L32.6622 33.8644L32.6521 33.8745Z" fill="#4F515A"/>
<path d="M36.4935 48.9062C36.4935 48.9062 34.8905 50.4387 31.271 50.8723L40.9397 66.56V51.2453L36.4935 48.9062Z" fill="#EDB380"/>
<path d="M45.3857 48.9062C45.3857 48.9062 46.9887 50.4387 50.6082 50.8723L40.9395 66.56V51.2453L45.3857 48.9062Z" fill="#F4C297"/>
<path d="M45.3857 48.9062C45.3857 48.9062 46.9887 50.4387 50.6082 50.8723L40.9395 66.56V51.2453L45.3857 48.9062Z" fill="#EDB380"/>
<path d="M78.0722 22.9764L68.4438 20.9902C67.9397 22.6739 65.3184 37.6761 63.5137 41.0536C61.6989 44.4311 56.1436 49.9359 54.9741 50.2485C53.8046 50.561 48.1082 50.4098 48.1082 50.4098L40.9499 52.2347L33.7916 50.4098C33.7916 50.4098 28.0952 50.561 26.9257 50.2485C25.7562 49.9359 20.201 44.4311 18.3862 41.0536C16.5714 37.6761 13.9501 22.6739 13.456 20.9902L3.82764 22.9764C3.82764 22.9764 10.3911 43.0902 11.5606 46.5282C12.8713 50.3795 26.593 63.1737 26.593 65.5632C26.593 66.5714 26.5023 68.1442 26.351 69.9993H55.5488C55.4076 68.1442 55.3068 66.5714 55.3068 65.5632C55.3068 63.1737 69.0286 50.3795 70.3392 46.5282C71.5088 43.0902 78.0722 22.9764 78.0722 22.9764Z" fill="#48BDF7"/>
<path d="M43.2989 6.4726C44.3474 11.4128 38.9938 16.7362 31.3415 18.3594C23.6892 19.9826 16.6317 17.3008 15.5832 12.3605C14.5246 7.42032 19.8782 2.10705 27.5406 0.473752C35.1929 -1.14947 42.2503 1.53237 43.2989 6.4726Z" fill="#FF5589"/>
<path d="M40.1631 6.49349C41.0604 10.6977 36.4932 15.2347 29.9701 16.626C23.447 18.0173 17.428 15.7287 16.5408 11.5144C15.6434 7.31014 20.2106 2.7732 26.7338 1.38187C33.2569 -0.0094592 39.2759 2.27918 40.1631 6.49349Z" fill="#FF82A8"/>
<path d="M23.9009 22.4732C23.9009 23.9653 22.6911 25.1651 21.209 25.1651C19.7269 25.1651 18.5171 23.9552 18.5171 22.4732C18.5171 20.9911 19.7269 19.7812 21.209 19.7812C22.6911 19.7812 23.9009 20.9911 23.9009 22.4732Z" fill="#FF5589"/>
<path d="M24.3242 30.0852C24.3242 31.1337 23.4773 31.9907 22.4187 31.9907C21.3601 31.9907 20.5132 31.1438 20.5132 30.0852C20.5132 29.0266 21.3601 28.1797 22.4187 28.1797C23.4773 28.1797 24.3242 29.0266 24.3242 30.0852Z" fill="#FF5589"/>
<path d="M27.1876 36.6387C27.1876 37.3949 26.5726 38.0099 25.8165 38.0099C25.0603 38.0099 24.4453 37.3949 24.4453 36.6387C24.4453 35.8826 25.0603 35.2676 25.8165 35.2676C26.5726 35.2676 27.1876 35.8826 27.1876 36.6387Z" fill="#FF5589"/>
<path d="M29.8594 41.0743C29.8594 41.4473 29.557 41.7598 29.1739 41.7598C28.7907 41.7598 28.4883 41.4574 28.4883 41.0743C28.4883 40.6911 28.7907 40.3887 29.1739 40.3887C29.557 40.3887 29.8594 40.6911 29.8594 41.0743Z" fill="#FF5589"/>
<path d="M25.5945 6.3517C25.7256 5.89801 25.9171 5.24267 26.4414 5.20234C26.8649 5.18218 27.2278 5.16202 27.6311 5.18218C28.0545 5.20234 28.3268 5.27292 28.1453 5.83752C27.369 8.23706 26.4716 10.7374 25.9272 13.2176C25.8869 13.3991 25.7961 13.5402 25.7054 13.6814C25.5945 13.8729 25.4534 13.9738 25.2416 13.9839C24.7274 14.0141 24.2032 14.0645 23.689 14.0443C23.1446 14.0242 22.7211 13.7419 22.59 13.137C22.4791 12.6631 22.3884 12.1792 22.2876 11.6952C22.0456 10.3543 21.6322 9.03354 21.2189 7.73295C21.0273 7.18852 20.8156 6.64408 20.7551 6.06941C20.6845 5.65604 20.8761 5.30317 21.2794 5.26284C21.6322 5.20234 21.975 5.26284 22.3481 5.23259C22.6405 5.20234 22.8219 5.35358 22.9429 5.62579C23.0437 5.8476 23.1446 6.07949 23.195 6.31138C23.6184 7.73295 23.8604 9.98126 24.3746 11.3625C25.0299 9.80986 25.161 7.80353 25.6046 6.38195L25.5945 6.3517Z" fill="white"/>
<path d="M31.0592 13.4703C31.0289 13.7123 30.8878 13.8736 30.6458 13.9038C30.3837 13.9341 29.7989 13.9744 29.5469 13.9442C29.0226 13.9139 28.8008 13.6417 28.8008 13.1275V12.2907C28.8209 10.3448 28.8109 8.0058 28.9016 6.07004C28.9016 5.93897 28.9016 5.79782 28.9117 5.64659C28.9218 5.38446 29.0629 5.21306 29.3351 5.21306C29.688 5.20298 30.3534 5.20298 30.6962 5.23323C30.9886 5.25339 31.0793 5.38446 31.0995 5.68692C31.1197 5.91881 31.0995 6.1507 31.0995 6.39267C31.0995 10.3045 31.0995 11.8269 31.0894 12.9158C31.0894 13.0973 31.0793 13.2787 31.0592 13.4602V13.4703Z" fill="white"/>
<path d="M33.8318 12.8552C33.8217 13.0669 33.8217 13.2887 33.8117 13.5004C33.8016 13.7223 33.6907 13.9541 33.3882 13.9642C33.0152 13.9743 32.622 13.9844 32.2389 13.9541C31.9767 13.9239 31.8356 13.7727 31.8053 13.5004C31.7852 13.3895 31.7852 13.2686 31.7852 13.1375C31.8255 10.7884 31.886 8.72153 31.886 6.7152C31.886 6.45306 31.8557 6.18084 31.8053 5.91871C31.7549 5.50534 31.8356 5.34403 32.2489 5.27346C33.489 5.0819 35.1122 5.21296 36.1709 5.99937C38.0764 7.3907 37.7638 10.8791 35.6264 11.7966C35.3139 11.9377 34.9711 11.9982 34.6182 11.9982H33.8318V12.8653V12.8552ZM33.9528 9.65917C34.2149 9.65917 34.4569 9.66925 34.6989 9.65917C35.0618 9.639 35.3542 9.4172 35.4046 9.06432C35.4752 8.77194 35.4752 8.4594 35.3139 8.1771C35.1425 7.86455 34.9005 7.69316 34.5678 7.64275C34.3763 7.62258 34.1948 7.64275 33.9629 7.64275C33.9427 8.32833 33.9024 8.99375 33.9528 9.65917Z" fill="white"/>
</g>
<defs>
<clipPath id="clip0_661_54791">
<rect width="81.2617" height="70" fill="white" transform="translate(0.369141)"/>
</clipPath>
</defs>
</svg>
